# Blender v2.92.0 OBJ File: ''
# www.blender.org
mtllib battery.mtl
o Cylinder006__0
v 5.869315 -2.431151 18.540474
v 6.352901 -0.000000 18.540474
v 0.000000 0.000000 18.540474
v 4.492179 -4.492180 18.540474
v 2.431150 -5.869317 18.540474
v -0.000000 -6.352903 18.540474
v -2.431150 -5.869317 18.540474
v -4.492179 -4.492180 18.540474
v -5.869315 -2.431151 18.540474
v -6.352901 -0.000001 18.540474
v -5.869316 2.431149 18.540474
v -4.492181 4.492178 18.540474
v -2.431151 5.869316 18.540474
v 0.000000 6.352902 18.540474
v 2.431151 5.869316 18.540474
v 4.492181 4.492178 18.540474
v 5.869317 2.431147 18.540474
v 2.277408 -0.000000 -23.376640
v 2.104051 -0.871527 -23.376640
v 0.002682 -0.013482 -23.376629
v 1.610371 -1.610371 -23.376640
v 0.871526 -2.104051 -23.376640
v -0.000000 -2.277409 -23.376640
v -0.871526 -2.104051 -23.376640
v -1.610371 -1.610371 -23.376640
v -2.104051 -0.871527 -23.376640
v -2.277408 -0.000000 -23.376640
v -2.104051 0.871526 -23.376640
v -0.012579 0.012579 -23.376629
v -1.610371 1.610371 -23.376640
v -0.871527 2.104051 -23.376640
v 0.000000 2.277408 -23.376640
v 0.871527 2.104051 -23.376640
v 1.610371 1.610370 -23.376640
v 0.013685 0.013685 -23.376629
v 2.104051 0.871525 -23.376640
v 7.700577 0.000000 17.331718
v 7.114405 -2.946884 17.331718
v 7.114405 -2.946884 -22.359177
v 7.700577 0.000000 -22.359177
v 5.445130 -5.445131 17.331718
v 5.445130 -5.445131 -22.359177
v 2.946883 -7.114407 17.331718
v 2.946883 -7.114407 -22.359177
v 2.946883 -7.114407 17.331718
v -0.000000 -7.700579 17.331718
v -0.000000 -7.700579 -22.359177
v 2.946883 -7.114407 -22.359177
v -2.946884 -7.114407 17.331718
v -2.946884 -7.114407 -22.359177
v -5.445130 -5.445131 17.331718
v -5.445130 -5.445131 -22.359177
v -7.114405 -2.946884 17.331718
v -7.114405 -2.946884 -22.359177
v -7.700577 -0.000001 17.331718
v -7.700577 -0.000001 -22.359177
v -7.114406 2.946882 17.331718
v -7.114406 2.946882 -22.359177
v -5.445132 5.445130 17.331718
v -5.445132 5.445130 -22.359177
v -2.946884 7.114407 17.331718
v -2.946884 7.114407 -22.359177
v 0.000000 7.700579 17.331718
v 0.000000 7.700579 -22.359177
v 2.946884 7.114407 17.331718
v 2.946884 7.114407 -22.359177
v 5.445132 5.445129 17.331718
v 5.445132 5.445129 -22.359177
v 7.114407 2.946880 17.331718
v 7.114407 2.946880 -22.359177
v 7.067307 -0.000000 -22.992447
v 6.529341 -2.704542 -22.992447
v 2.104051 -0.871527 -22.992447
v 2.277408 -0.000000 -22.992447
v 4.997341 -4.997342 -22.992447
v 1.610371 -1.610371 -22.992447
v 2.704541 -6.529342 -22.992447
v 0.871526 -2.104051 -22.992447
v -0.000000 -7.067309 -22.992447
v -0.000000 -2.277409 -22.992447
v -2.704542 -6.529342 -22.992447
v -0.871526 -2.104051 -22.992447
v -4.997341 -4.997342 -22.992447
v -1.610371 -1.610371 -22.992447
v -6.529341 -2.704543 -22.992447
v -2.104051 -0.871527 -22.992447
v -7.067307 -0.000001 -22.992447
v -2.277408 -0.000000 -22.992447
v -6.529342 2.704541 -22.992447
v -2.104051 0.871526 -22.992447
v -4.997343 4.997340 -22.992447
v -1.610371 1.610371 -22.992447
v -2.704542 6.529342 -22.992447
v -0.871527 2.104051 -22.992447
v 0.000000 7.067309 -22.992447
v 0.000000 2.277408 -22.992447
v 2.704543 6.529342 -22.992447
v 0.871527 2.104051 -22.992447
v 4.997343 4.997340 -22.992447
v 1.610371 1.610370 -22.992447
v 6.529342 2.704539 -22.992447
v 2.104051 0.871525 -22.992447
v 6.633650 -2.747749 17.852083
v 7.180212 -0.000000 17.852083
v 6.352901 -0.000000 17.852083
v 5.869315 -2.431151 17.852083
v 5.077176 -5.077178 17.852083
v 4.492179 -4.492180 17.852083
v 2.747748 -6.633652 17.852083
v 2.431150 -5.869317 17.852083
v -0.000000 -7.180213 17.852083
v -0.000000 -6.352903 17.852083
v -2.747748 -6.633652 17.852083
v -2.431150 -5.869317 17.852083
v -5.077176 -5.077178 17.852083
v -4.492179 -4.492180 17.852083
v -6.633650 -2.747749 17.852083
v -5.869315 -2.431151 17.852083
v -7.180212 -0.000001 17.852083
v -6.352901 -0.000001 17.852083
v -6.633651 2.747747 17.852083
v -5.869316 2.431149 17.852083
v -5.077178 5.077176 17.852083
v -4.492181 4.492178 17.852083
v -2.747749 6.633652 17.852083
v -2.431151 5.869316 17.852083
v 0.000000 7.180213 17.852083
v 0.000000 6.352902 17.852083
v 2.747749 6.633651 17.852083
v 2.431151 5.869316 17.852083
v 5.077178 5.077176 17.852083
v 4.492181 4.492178 17.852083
v 6.633652 2.747745 17.852083
v 5.869317 2.431147 17.852083
v 7.114405 -2.946884 -22.359177
v 7.700577 0.000000 -22.359177
v 5.445130 -5.445131 -22.359177
v 2.946883 -7.114407 -22.359177
v -0.000000 -7.700579 -22.359177
v -2.946884 -7.114407 -22.359177
v -5.445130 -5.445131 -22.359177
v -7.114405 -2.946884 -22.359177
v -7.700577 -0.000001 -22.359177
v -7.114406 2.946882 -22.359177
v -5.445132 5.445130 -22.359177
v -2.946884 7.114407 -22.359177
v 0.000000 7.700579 -22.359177
v 2.946884 7.114407 -22.359177
v 5.445132 5.445129 -22.359177
v 7.114407 2.946880 -22.359177
v 5.869315 -2.431151 17.852083
v 6.352901 -0.000000 17.852083
v 4.492179 -4.492180 17.852083
v 2.431150 -5.869317 17.852083
v -0.000000 -6.352903 17.852083
v -2.431150 -5.869317 17.852083
v -4.492179 -4.492180 17.852083
v -5.869315 -2.431151 17.852083
v -6.352901 -0.000001 17.852083
v -5.869316 2.431149 17.852083
v -4.492181 4.492178 17.852083
v -2.431151 5.869316 17.852083
v 0.000000 6.352902 17.852083
v 2.431151 5.869316 17.852083
v 4.492181 4.492178 17.852083
v 5.869317 2.431147 17.852083
v 7.700577 0.000000 17.331718
v 7.114405 -2.946884 17.331718
v 5.445130 -5.445131 17.331718
v 2.946883 -7.114407 17.331718
v -0.000000 -7.700579 17.331718
v -2.946884 -7.114407 17.331718
v -5.445130 -5.445131 17.331718
v -7.114405 -2.946884 17.331718
v -7.700577 -0.000001 17.331718
v -7.114406 2.946882 17.331718
v -5.445132 5.445130 17.331718
v -2.946884 7.114407 17.331718
v 0.000000 7.700579 17.331718
v 2.946884 7.114407 17.331718
v 5.445132 5.445129 17.331718
v 7.114407 2.946880 17.331718
v 2.277408 -0.000000 -22.992447
v 2.104051 -0.871527 -22.992447
v 1.610371 -1.610371 -22.992447
v 0.871526 -2.104051 -22.992447
v -0.000000 -2.277409 -22.992447
v -0.871526 -2.104051 -22.992447
v -1.610371 -1.610371 -22.992447
v -2.104051 -0.871527 -22.992447
v -2.277408 -0.000000 -22.992447
v -2.104051 0.871526 -22.992447
v -1.610371 1.610371 -22.992447
v -0.871527 2.104051 -22.992447
v 0.000000 2.277408 -22.992447
v 0.871527 2.104051 -22.992447
v 1.610371 1.610370 -22.992447
v 2.104051 0.871525 -22.992447
vt 0.232226 0.215990
vt 0.252363 0.177795
vt 0.146282 0.146276
vt 0.199005 0.243571
vt 0.157756 0.256340
vt 0.114762 0.252353
vt 0.076566 0.232217
vt 0.048984 0.198997
vt 0.036215 0.157751
vt 0.040202 0.114758
vt 0.060338 0.076563
vt 0.093559 0.048982
vt 0.134806 0.036213
vt 0.177800 0.040200
vt 0.215997 0.060336
vt 0.243580 0.093556
vt 0.256350 0.134802
vt 0.483651 0.133501
vt 0.474917 0.121643
vt 0.448392 0.150509
vt 0.462356 0.113843
vt 0.447764 0.111273
vt 0.433251 0.114305
vt 0.420918 0.122499
vt 0.412541 0.134661
vt 0.409262 0.149000
vt 0.412495 0.163299
vt 0.421475 0.175092
vt 0.448504 0.146522
vt 0.434021 0.183002
vt 0.448599 0.185775
vt 0.463186 0.183096
vt 0.475409 0.174837
vt 0.483356 0.162353
vt 0.446865 0.147737
vt 0.486547 0.147893
vt 0.694999 0.999500
vt 0.748421 0.999500
vt 0.748421 0.293760
vt 0.694999 0.293760
vt 0.801844 0.999500
vt 0.801844 0.293760
vt 0.855268 0.999500
vt 0.855268 0.293760
vt 0.000500 0.999500
vt 0.053925 0.999500
vt 0.053925 0.293760
vt 0.000500 0.293760
vt 0.107350 0.999500
vt 0.107349 0.293760
vt 0.160774 0.999500
vt 0.160774 0.293760
vt 0.214199 0.999500
vt 0.214199 0.293760
vt 0.267623 0.999500
vt 0.267623 0.293760
vt 0.321047 0.999500
vt 0.321047 0.293760
vt 0.374470 0.999500
vt 0.374470 0.293760
vt 0.427893 0.999500
vt 0.427893 0.293760
vt 0.481315 0.999500
vt 0.481315 0.293760
vt 0.534737 0.999500
vt 0.534737 0.293760
vt 0.588158 0.999500
vt 0.588158 0.293760
vt 0.641578 0.999500
vt 0.641578 0.293760
vt 0.566435 0.098010
vt 0.537977 0.056828
vt 0.478850 0.117498
vt 0.488671 0.131323
vt 0.495903 0.029713
vt 0.464464 0.108439
vt 0.446680 0.020655
vt 0.447681 0.105441
vt 0.397701 0.030946
vt 0.430980 0.108933
vt 0.356288 0.059057
vt 0.416818 0.118401
vt 0.328711 0.100832
vt 0.407291 0.132450
vt 0.319321 0.150003
vt 0.403871 0.149032
vt 0.329760 0.198963
vt 0.407503 0.165577
vt 0.358310 0.240084
vt 0.417459 0.179337
vt 0.400376 0.267218
vt 0.431850 0.188462
vt 0.449580 0.276397
vt 0.448622 0.191612
vt 0.498583 0.266202
vt 0.465349 0.188301
vt 0.539964 0.238040
vt 0.479462 0.178771
vt 0.567412 0.196176
vt 0.488760 0.164549
vt 0.576761 0.146994
vt 0.492117 0.147920
vt 0.250302 0.230653
vt 0.274676 0.184425
vt 0.261925 0.180636
vt 0.239972 0.222273
vt 0.210093 0.264034
vt 0.203756 0.252340
vt 0.160170 0.279488
vt 0.158791 0.266259
vt 0.108133 0.274663
vt 0.111921 0.261913
vt 0.061903 0.250292
vt 0.070283 0.239963
vt 0.028520 0.210086
vt 0.040214 0.203749
vt 0.013064 0.160164
vt 0.026294 0.158785
vt 0.017890 0.108128
vt 0.030640 0.111917
vt 0.042262 0.061900
vt 0.052592 0.070279
vt 0.082470 0.028518
vt 0.088807 0.040213
vt 0.132392 0.013064
vt 0.133771 0.026293
vt 0.184429 0.017890
vt 0.180641 0.030640
vt 0.230659 0.042260
vt 0.222280 0.052590
vt 0.264045 0.082466
vt 0.252350 0.088804
vt 0.279501 0.132388
vt 0.266271 0.133768
vt 0.548871 0.045600
vt 0.580801 0.091837
vt 0.501681 0.015165
vt 0.446487 0.004999
vt 0.391572 0.016539
vt 0.345139 0.048072
vt 0.314214 0.094958
vt 0.303692 0.150174
vt 0.315405 0.205159
vt 0.347419 0.251324
vt 0.394581 0.281765
vt 0.449749 0.292052
vt 0.504704 0.280603
vt 0.551126 0.249004
vt 0.581922 0.202032
vt 0.592399 0.146832
vt 0.239972 0.222273
vt 0.261925 0.180636
vt 0.203756 0.252340
vt 0.158791 0.266259
vt 0.111921 0.261913
vt 0.070283 0.239963
vt 0.040214 0.203749
vt 0.026294 0.158785
vt 0.030640 0.111917
vt 0.052592 0.070279
vt 0.088807 0.040213
vt 0.133771 0.026293
vt 0.180641 0.030640
vt 0.222280 0.052590
vt 0.252350 0.088804
vt 0.266271 0.133768
vt 0.286785 0.188023
vt 0.260113 0.238611
vt 0.216111 0.275141
vt 0.161479 0.292052
vt 0.104535 0.286772
vt 0.053946 0.260103
vt 0.017413 0.216104
vt 0.000500 0.161474
vt 0.005781 0.104530
vt 0.032451 0.053942
vt 0.076452 0.017411
vt 0.131082 0.000500
vt 0.188026 0.005781
vt 0.238617 0.032450
vt 0.275151 0.076448
vt 0.292066 0.131078
vt 0.488671 0.131323
vt 0.478850 0.117498
vt 0.464464 0.108439
vt 0.447681 0.105441
vt 0.430980 0.108933
vt 0.416818 0.118401
vt 0.407291 0.132450
vt 0.403871 0.149032
vt 0.407503 0.165577
vt 0.417459 0.179337
vt 0.431850 0.188462
vt 0.448622 0.191612
vt 0.465349 0.188301
vt 0.479462 0.178771
vt 0.488760 0.164549
vt 0.492117 0.147920
vn 0.6894 -0.2856 0.6657
vn 0.7462 -0.0000 0.6657
vn 0.0000 0.0000 1.0000
vn 0.5276 -0.5276 0.6657
vn 0.2856 -0.6894 0.6657
vn 0.0000 -0.7462 0.6657
vn -0.2856 -0.6894 0.6657
vn -0.5276 -0.5276 0.6657
vn -0.6894 -0.2856 0.6657
vn -0.7462 0.0000 0.6657
vn -0.6894 0.2856 0.6657
vn -0.5276 0.5276 0.6657
vn -0.2856 0.6894 0.6657
vn -0.0000 0.7462 0.6657
vn 0.2856 0.6894 0.6657
vn 0.5276 0.5276 0.6657
vn 0.6894 0.2856 0.6657
vn 0.7462 0.0000 -0.6657
vn 0.6894 -0.2856 -0.6657
vn -0.0000 0.0000 -1.0000
vn 0.5276 -0.5276 -0.6657
vn 0.2856 -0.6894 -0.6657
vn -0.0000 -0.7462 -0.6657
vn -0.2856 -0.6894 -0.6657
vn -0.5276 -0.5276 -0.6657
vn -0.6894 -0.2856 -0.6657
vn -0.7462 -0.0000 -0.6657
vn -0.6894 0.2856 -0.6657
vn -0.5276 0.5276 -0.6657
vn -0.2856 0.6894 -0.6657
vn -0.0000 0.7462 -0.6657
vn 0.2856 0.6894 -0.6657
vn 0.5276 0.5276 -0.6657
vn -0.0001 -0.0000 -1.0000
vn 0.6894 0.2856 -0.6657
vn 0.9303 -0.0000 0.3668
vn 0.8595 -0.3560 0.3668
vn 0.8595 -0.3560 -0.3668
vn 0.9303 0.0000 -0.3668
vn 0.6578 -0.6578 0.3668
vn 0.6578 -0.6578 -0.3668
vn 0.3560 -0.8595 0.3668
vn 0.3560 -0.8595 -0.3668
vn 0.0000 -0.9303 0.3668
vn -0.0000 -0.9303 -0.3668
vn -0.3560 -0.8595 0.3668
vn -0.3560 -0.8595 -0.3668
vn -0.6578 -0.6578 0.3668
vn -0.6578 -0.6578 -0.3668
vn -0.8595 -0.3560 0.3668
vn -0.8595 -0.3560 -0.3668
vn -0.9303 0.0001 0.3668
vn -0.9303 0.0000 -0.3668
vn -0.8595 0.3560 0.3668
vn -0.8595 0.3560 -0.3668
vn -0.6578 0.6578 0.3668
vn -0.6579 0.6577 -0.3668
vn -0.3560 0.8595 0.3668
vn -0.3560 0.8595 -0.3668
vn -0.0000 0.9303 0.3668
vn -0.0002 0.9303 -0.3668
vn 0.3560 0.8595 0.3668
vn 0.3560 0.8595 -0.3668
vn 0.6577 0.6579 0.3668
vn 0.6578 0.6578 -0.3668
vn 0.8595 0.3560 0.3668
vn 0.8595 0.3561 -0.3668
vn 0.4220 -0.0000 -0.9066
vn 0.3899 -0.1615 -0.9066
vn 0.2984 -0.2984 -0.9066
vn 0.1615 -0.3899 -0.9066
vn 0.0000 -0.4220 -0.9066
vn -0.1615 -0.3899 -0.9066
vn -0.2984 -0.2984 -0.9066
vn -0.3899 -0.1615 -0.9066
vn -0.4220 -0.0000 -0.9066
vn -0.3899 0.1615 -0.9066
vn -0.2984 0.2984 -0.9066
vn -0.1615 0.3899 -0.9066
vn 0.0000 0.4220 -0.9066
vn 0.1615 0.3899 -0.9066
vn 0.2984 0.2984 -0.9066
vn 0.3899 0.1615 -0.9066
vn 0.3899 -0.1615 0.9066
vn 0.4220 -0.0000 0.9066
vn 0.2984 -0.2984 0.9066
vn 0.1615 -0.3899 0.9066
vn -0.0000 -0.4220 0.9066
vn -0.1615 -0.3899 0.9066
vn -0.2984 -0.2984 0.9066
vn -0.3899 -0.1615 0.9066
vn -0.4220 -0.0000 0.9066
vn -0.3899 0.1615 0.9066
vn -0.2984 0.2984 0.9066
vn -0.1615 0.3899 0.9066
vn 0.0000 0.4220 0.9066
vn 0.1615 0.3899 0.9066
vn 0.2984 0.2984 0.9066
vn 0.3899 0.1615 0.9066
vn -0.6578 0.6578 -0.3668
vn -0.0000 0.9303 -0.3668
vn 0.8595 0.3560 -0.3668
vn 0.9239 -0.3827 0.0000
vn 1.0000 -0.0000 0.0000
vn 0.7071 -0.7071 0.0000
vn 0.3827 -0.9239 0.0000
vn 0.0000 -1.0000 0.0000
vn -0.3827 -0.9239 0.0000
vn -0.7071 -0.7071 0.0000
vn -0.9239 -0.3827 0.0000
vn -1.0000 0.0000 0.0000
vn -0.9239 0.3827 0.0000
vn -0.7071 0.7071 0.0000
vn -0.3827 0.9239 0.0000
vn -0.0000 1.0000 0.0000
vn 0.3827 0.9239 0.0000
vn 0.7071 0.7071 0.0000
vn 0.9239 0.3827 0.0000
vn -0.9303 0.0000 0.3668
vn 0.6578 0.6578 0.3668
usemtl Scene_-_Root
s 1
f 1/1/1 2/2/2 3/3/3
f 4/4/4 1/1/1 3/3/3
f 5/5/5 4/4/4 3/3/3
f 6/6/6 5/5/5 3/3/3
f 7/7/7 6/6/6 3/3/3
f 8/8/8 7/7/7 3/3/3
f 9/9/9 8/8/8 3/3/3
f 10/10/10 9/9/9 3/3/3
f 11/11/11 10/10/10 3/3/3
f 12/12/12 11/11/11 3/3/3
f 13/13/13 12/12/12 3/3/3
f 14/14/14 13/13/13 3/3/3
f 15/15/15 14/14/14 3/3/3
f 16/16/16 15/15/15 3/3/3
f 17/17/17 16/16/16 3/3/3
f 2/2/2 17/17/17 3/3/3
f 18/18/18 19/19/19 20/20/20
f 19/19/19 21/21/21 20/20/20
f 21/21/21 22/22/22 20/20/20
f 22/22/22 23/23/23 20/20/20
f 23/23/23 24/24/24 20/20/20
f 24/24/24 25/25/25 20/20/20
f 25/25/25 26/26/26 20/20/20
f 27/27/27 28/28/28 29/29/20
f 28/28/28 30/30/29 29/29/20
f 30/30/29 31/31/30 29/29/20
f 31/31/30 32/32/31 29/29/20
f 33/33/32 34/34/33 35/35/34
f 34/34/33 36/36/35 35/35/34
f 37/37/36 38/38/37 39/39/38
f 37/37/36 39/39/38 40/40/39
f 38/38/37 41/41/40 42/42/41
f 38/38/37 42/42/41 39/39/38
f 41/41/40 43/43/42 44/44/43
f 41/41/40 44/44/43 42/42/41
f 45/45/42 46/46/44 47/47/45
f 45/45/42 47/47/45 48/48/43
f 46/46/44 49/49/46 50/50/47
f 46/46/44 50/50/47 47/47/45
f 49/49/46 51/51/48 52/52/49
f 49/49/46 52/52/49 50/50/47
f 51/51/48 53/53/50 54/54/51
f 51/51/48 54/54/51 52/52/49
f 53/53/50 55/55/52 56/56/53
f 53/53/50 56/56/53 54/54/51
f 55/55/52 57/57/54 58/58/55
f 55/55/52 58/58/55 56/56/53
f 57/57/54 59/59/56 60/60/57
f 57/57/54 60/60/57 58/58/55
f 59/59/56 61/61/58 62/62/59
f 59/59/56 62/62/59 60/60/57
f 61/61/58 63/63/60 64/64/61
f 61/61/58 64/64/61 62/62/59
f 63/63/60 65/65/62 66/66/63
f 63/63/60 66/66/63 64/64/61
f 65/65/62 67/67/64 68/68/65
f 65/65/62 68/68/65 66/66/63
f 67/67/64 69/69/66 70/70/67
f 67/67/64 70/70/67 68/68/65
f 69/69/66 37/37/36 40/40/39
f 69/69/66 40/40/39 70/70/67
f 71/71/68 72/72/69 73/73/20
f 71/71/68 73/73/20 74/74/20
f 72/72/69 75/75/70 76/76/20
f 72/72/69 76/76/20 73/73/20
f 75/75/70 77/77/71 78/78/20
f 75/75/70 78/78/20 76/76/20
f 77/77/71 79/79/72 80/80/20
f 77/77/71 80/80/20 78/78/20
f 79/79/72 81/81/73 82/82/20
f 79/79/72 82/82/20 80/80/20
f 81/81/73 83/83/74 84/84/20
f 81/81/73 84/84/20 82/82/20
f 83/83/74 85/85/75 86/86/20
f 83/83/74 86/86/20 84/84/20
f 85/85/75 87/87/76 88/88/20
f 85/85/75 88/88/20 86/86/20
f 87/87/76 89/89/77 90/90/20
f 87/87/76 90/90/20 88/88/20
f 89/89/77 91/91/78 92/92/20
f 89/89/77 92/92/20 90/90/20
f 91/91/78 93/93/79 94/94/20
f 91/91/78 94/94/20 92/92/20
f 93/93/79 95/95/80 96/96/20
f 93/93/79 96/96/20 94/94/20
f 95/95/80 97/97/81 98/98/20
f 95/95/80 98/98/20 96/96/20
f 97/97/81 99/99/82 100/100/20
f 97/97/81 100/100/20 98/98/20
f 99/99/82 101/101/83 102/102/20
f 99/99/82 102/102/20 100/100/20
f 101/101/83 71/71/68 74/74/20
f 101/101/83 74/74/20 102/102/20
f 103/103/84 104/104/85 105/105/3
f 103/103/84 105/105/3 106/106/3
f 107/107/86 103/103/84 106/106/3
f 107/107/86 106/106/3 108/108/3
f 109/109/87 107/107/86 108/108/3
f 109/109/87 108/108/3 110/110/3
f 111/111/88 109/109/87 110/110/3
f 111/111/88 110/110/3 112/112/3
f 113/113/89 111/111/88 112/112/3
f 113/113/89 112/112/3 114/114/3
f 115/115/90 113/113/89 114/114/3
f 115/115/90 114/114/3 116/116/3
f 117/117/91 115/115/90 116/116/3
f 117/117/91 116/116/3 118/118/3
f 119/119/92 117/117/91 118/118/3
f 119/119/92 118/118/3 120/120/3
f 121/121/93 119/119/92 120/120/3
f 121/121/93 120/120/3 122/122/3
f 123/123/94 121/121/93 122/122/3
f 123/123/94 122/122/3 124/124/3
f 125/125/95 123/123/94 124/124/3
f 125/125/95 124/124/3 126/126/3
f 127/127/96 125/125/95 126/126/3
f 127/127/96 126/126/3 128/128/3
f 129/129/97 127/127/96 128/128/3
f 129/129/97 128/128/3 130/130/3
f 131/131/98 129/129/97 130/130/3
f 131/131/98 130/130/3 132/132/3
f 133/133/99 131/131/98 132/132/3
f 133/133/99 132/132/3 134/134/3
f 104/104/85 133/133/99 134/134/3
f 104/104/85 134/134/3 105/105/3
f 135/135/38 72/72/69 71/71/68
f 135/135/38 71/71/68 136/136/39
f 137/137/41 75/75/70 72/72/69
f 137/137/41 72/72/69 135/135/38
f 138/138/43 77/77/71 75/75/70
f 138/138/43 75/75/70 137/137/41
f 139/139/45 79/79/72 77/77/71
f 139/139/45 77/77/71 138/138/43
f 140/140/47 81/81/73 79/79/72
f 140/140/47 79/79/72 139/139/45
f 141/141/49 83/83/74 81/81/73
f 141/141/49 81/81/73 140/140/47
f 142/142/51 85/85/75 83/83/74
f 142/142/51 83/83/74 141/141/49
f 143/143/53 87/87/76 85/85/75
f 143/143/53 85/85/75 142/142/51
f 144/144/55 89/89/77 87/87/76
f 144/144/55 87/87/76 143/143/53
f 145/145/100 91/91/78 89/89/77
f 145/145/100 89/89/77 144/144/55
f 146/146/59 93/93/79 91/91/78
f 146/146/59 91/91/78 145/145/100
f 147/147/101 95/95/80 93/93/79
f 147/147/101 93/93/79 146/146/59
f 148/148/63 97/97/81 95/95/80
f 148/148/63 95/95/80 147/147/101
f 149/149/65 99/99/82 97/97/81
f 149/149/65 97/97/81 148/148/63
f 150/150/102 101/101/83 99/99/82
f 150/150/102 99/99/82 149/149/65
f 136/136/39 71/71/68 101/101/83
f 136/136/39 101/101/83 150/150/102
f 151/151/103 152/152/104 2/2/2
f 151/151/103 2/2/2 1/1/1
f 153/153/105 151/151/103 1/1/1
f 153/153/105 1/1/1 4/4/4
f 154/154/106 153/153/105 4/4/4
f 154/154/106 4/4/4 5/5/5
f 155/155/107 154/154/106 5/5/5
f 155/155/107 5/5/5 6/6/6
f 156/156/108 155/155/107 6/6/6
f 156/156/108 6/6/6 7/7/7
f 157/157/109 156/156/108 7/7/7
f 157/157/109 7/7/7 8/8/8
f 158/158/110 157/157/109 8/8/8
f 158/158/110 8/8/8 9/9/9
f 159/159/111 158/158/110 9/9/9
f 159/159/111 9/9/9 10/10/10
f 160/160/112 159/159/111 10/10/10
f 160/160/112 10/10/10 11/11/11
f 161/161/113 160/160/112 11/11/11
f 161/161/113 11/11/11 12/12/12
f 162/162/114 161/161/113 12/12/12
f 162/162/114 12/12/12 13/13/13
f 163/163/115 162/162/114 13/13/13
f 163/163/115 13/13/13 14/14/14
f 164/164/116 163/163/115 14/14/14
f 164/164/116 14/14/14 15/15/15
f 165/165/117 164/164/116 15/15/15
f 165/165/117 15/15/15 16/16/16
f 166/166/118 165/165/117 16/16/16
f 166/166/118 16/16/16 17/17/17
f 152/152/104 166/166/118 17/17/17
f 152/152/104 17/17/17 2/2/2
f 167/167/36 104/104/85 103/103/84
f 167/167/36 103/103/84 168/168/37
f 168/168/37 103/103/84 107/107/86
f 168/168/37 107/107/86 169/169/40
f 169/169/40 107/107/86 109/109/87
f 169/169/40 109/109/87 170/170/42
f 170/170/42 109/109/87 111/111/88
f 170/170/42 111/111/88 171/171/44
f 171/171/44 111/111/88 113/113/89
f 171/171/44 113/113/89 172/172/46
f 172/172/46 113/113/89 115/115/90
f 172/172/46 115/115/90 173/173/48
f 173/173/48 115/115/90 117/117/91
f 173/173/48 117/117/91 174/174/50
f 174/174/50 117/117/91 119/119/92
f 174/174/50 119/119/92 175/175/119
f 175/175/119 119/119/92 121/121/93
f 175/175/119 121/121/93 176/176/54
f 176/176/54 121/121/93 123/123/94
f 176/176/54 123/123/94 177/177/56
f 177/177/56 123/123/94 125/125/95
f 177/177/56 125/125/95 178/178/58
f 178/178/58 125/125/95 127/127/96
f 178/178/58 127/127/96 179/179/60
f 179/179/60 127/127/96 129/129/97
f 179/179/60 129/129/97 180/180/62
f 180/180/62 129/129/97 131/131/98
f 180/180/62 131/131/98 181/181/120
f 181/181/120 131/131/98 133/133/99
f 181/181/120 133/133/99 182/182/66
f 182/182/66 133/133/99 104/104/85
f 182/182/66 104/104/85 167/167/36
f 183/183/104 184/184/103 19/19/19
f 183/183/104 19/19/19 18/18/18
f 184/184/103 185/185/105 21/21/21
f 184/184/103 21/21/21 19/19/19
f 185/185/105 186/186/106 22/22/22
f 185/185/105 22/22/22 21/21/21
f 186/186/106 187/187/107 23/23/23
f 186/186/106 23/23/23 22/22/22
f 187/187/107 188/188/108 24/24/24
f 187/187/107 24/24/24 23/23/23
f 188/188/108 189/189/109 25/25/25
f 188/188/108 25/25/25 24/24/24
f 189/189/109 190/190/110 26/26/26
f 189/189/109 26/26/26 25/25/25
f 190/190/110 191/191/111 27/27/27
f 190/190/110 27/27/27 26/26/26
f 191/191/111 192/192/112 28/28/28
f 191/191/111 28/28/28 27/27/27
f 192/192/112 193/193/113 30/30/29
f 192/192/112 30/30/29 28/28/28
f 193/193/113 194/194/114 31/31/30
f 193/193/113 31/31/30 30/30/29
f 194/194/114 195/195/115 32/32/31
f 194/194/114 32/32/31 31/31/30
f 195/195/115 196/196/116 33/33/32
f 195/195/115 33/33/32 32/32/31
f 196/196/116 197/197/117 34/34/33
f 196/196/116 34/34/33 33/33/32
f 197/197/117 198/198/118 36/36/35
f 197/197/117 36/36/35 34/34/33
f 198/198/118 183/183/104 18/18/18
f 198/198/118 18/18/18 36/36/35
f 26/26/26 27/27/27 29/29/20
f 26/26/26 29/29/20 20/20/20
f 32/32/31 33/33/32 35/35/34
f 32/32/31 35/35/34 29/29/20
f 36/36/35 18/18/18 20/20/20
f 36/36/35 20/20/20 35/35/34
