# Blender v2.92.0 OBJ File: ''
# www.blender.org
mtllib small rocks 2.mtl
o smallrock1_smallrocks_0_smallrock1_smallrocks_0.001
v -1.115843 0.021668 0.038720
v -1.224891 0.022349 -0.066714
v -1.039460 0.011981 -0.224529
v -1.224914 0.166897 -0.230138
v -1.156267 0.016659 -0.226019
v -1.230202 0.062970 -0.157595
v -1.171563 0.176168 -0.031482
v -1.221769 0.078707 -0.065638
v -1.128087 0.092355 0.027294
v -0.974796 0.017884 -0.033385
v -1.044250 0.109642 0.008521
v -1.035720 0.173684 -0.044053
v -1.037666 0.175732 -0.230577
v -1.224914 0.166897 -0.230138
v -1.171563 0.176168 -0.031482
v -1.037666 0.175732 -0.230577
v -1.224914 0.166897 -0.230138
v -0.977259 0.078474 -0.032876
v -0.974796 0.017884 -0.033385
v -0.990404 0.174356 -0.094260
v -1.039460 0.011981 -0.224529
v -1.115843 0.021668 0.038720
v -1.224891 0.022349 -0.066714
v -1.156267 0.016659 -0.226019
v -1.230202 0.062970 -0.157595
v -1.230202 0.062970 -0.157595
v -1.035720 0.173684 -0.044053
v -0.990404 0.174356 -0.094260
vt 0.862449 0.560611
vt 0.833635 0.617191
vt 0.928610 0.654444
vt 0.863827 0.800154
vt 0.791904 0.787193
vt 0.816165 0.829974
vt 0.827729 0.573628
vt 0.798427 0.537416
vt 0.786037 0.587252
vt 0.928118 0.569942
vt 0.790915 0.619447
vt 0.822234 0.629722
vt 0.846951 0.718983
vt 0.862398 0.496281
vt 0.492323 0.914111
vt 0.426687 0.990132
vt 0.406132 0.914402
vt 0.780319 0.650351
vt 0.754547 0.652116
vt 0.827700 0.658336
vt 0.777316 0.737633
vt 0.757326 0.586973
vt 0.777530 0.527700
vt 0.882530 0.670923
vt 0.810053 0.501079
vt 0.837752 0.658717
vt 0.502234 0.970361
vt 0.486947 0.994191
vn -0.0211 -0.9993 0.0307
vn -0.7342 -0.6089 0.3004
vn -0.0276 -0.9993 0.0264
vn -0.8440 0.3462 -0.4096
vn -0.3820 -0.5540 -0.7397
vn -0.9505 -0.2471 -0.1883
vn -0.2665 0.8516 0.4514
vn -0.9139 0.1457 0.3790
vn -0.4242 0.2088 0.8812
vn -0.0094 -0.9994 0.0340
vn 0.3423 0.3235 0.8821
vn 0.3859 0.7183 0.5789
vn 0.5832 -0.0369 -0.8115
vn -0.0177 0.9997 -0.0141
vn -0.8440 0.3462 -0.4095
vn 0.7876 0.2768 0.5506
vn 0.9714 -0.0158 0.2370
vn 0.7256 0.6867 0.0440
vn 0.5874 -0.0363 -0.8085
vn -0.0250 0.0463 0.9986
vn -0.9505 -0.2472 -0.1884
usemtl smallrocks.001
s 1
f 1/1/1 2/2/2 3/3/3
f 4/4/4 5/5/5 6/6/6
f 7/7/7 8/8/8 9/9/9
f 10/10/10 1/1/1 3/3/3
f 11/11/11 12/12/12 7/7/7
f 13/13/13 5/5/5 4/4/4
f 7/7/7 14/14/4 8/8/8
f 15/15/7 16/16/14 17/17/15
f 18/18/16 11/11/11 19/19/17
f 20/20/18 18/18/16 19/19/17
f 21/21/19 13/13/13 19/19/17
f 11/11/11 18/18/16 12/12/12
f 11/11/11 9/9/9 22/22/20
f 9/9/9 23/23/2 22/22/20
f 13/13/13 21/21/19 5/5/5
f 3/3/3 2/2/2 24/24/5
f 11/11/11 22/22/20 19/19/17
f 11/11/11 7/7/7 9/9/9
f 25/25/21 8/8/8 14/14/4
f 26/26/6 24/24/5 2/2/2
f 8/8/8 23/23/2 9/9/9
f 8/8/8 25/25/21 23/23/2
f 18/18/16 20/20/18 12/12/12
f 27/27/12 28/28/18 15/15/7
f 28/28/18 16/16/14 15/15/7
f 13/13/13 20/20/18 19/19/17
o smallrock2_smallrocks_0_smallrock2_smallrocks_0.001
v -1.215907 0.143719 0.885250
v -0.999578 0.131151 0.992734
v -1.054708 0.235070 0.961955
v -1.007575 0.017469 0.976287
v -1.195628 0.032144 0.783558
v -1.011844 0.025998 0.639665
v -1.188444 0.269827 0.854778
v -1.077828 0.292444 0.754738
v -1.252766 0.276793 0.705963
v -1.195224 0.047827 0.637813
v -1.081748 0.039601 0.609801
v -1.210348 0.049606 0.872030
v -1.134101 0.271428 0.593326
v -0.945179 0.223630 0.656755
v -1.011844 0.025998 0.639665
v -1.081748 0.039601 0.609801
v -0.951077 0.250602 0.961430
v -1.233841 0.222934 0.842834
v -0.879170 0.031264 0.830914
v -0.901268 0.026035 0.925038
v -0.879170 0.031264 0.830914
v -0.879623 0.149349 0.907691
v -0.901268 0.026035 0.925038
v -0.908549 0.241424 0.731506
v -0.897596 0.120179 0.702975
v -0.908549 0.241424 0.731506
v -0.945179 0.223630 0.656755
v -1.166076 0.108625 0.588215
v -1.252372 0.194915 0.697234
v -1.176656 0.257373 0.594488
v -1.244672 0.076147 0.755729
v -1.244672 0.076147 0.755729
v -1.045605 0.271782 0.842703
v -1.054708 0.235070 0.961955
v -0.951077 0.250602 0.961430
v -0.884280 0.243359 0.895878
v -0.884814 0.192721 0.767067
v -1.176656 0.257373 0.594488
v -1.176656 0.257373 0.594488
v -1.134101 0.271428 0.593326
v -1.166076 0.108625 0.588215
v -0.884280 0.243359 0.895878
v -1.195224 0.047827 0.637813
v -1.007575 0.017469 0.976287
v -0.936409 0.027089 0.678075
v -1.195224 0.047827 0.637813
v -0.936409 0.027089 0.678075
v -1.210348 0.049606 0.872030
v -1.252766 0.276793 0.705963
v -1.188444 0.269827 0.854778
vt 0.561668 0.072158
vt 0.463564 0.075514
vt 0.488572 0.031856
vt 0.806220 0.962435
vt 0.844066 0.853419
vt 0.934480 0.895936
vt 0.506528 0.262662
vt 0.528406 0.202474
vt 0.576461 0.263180
vt 0.899689 0.824453
vt 0.932510 0.862753
vt 0.563027 0.111879
vt 0.601367 0.197283
vt 0.290952 0.031932
vt 0.262856 0.121635
vt 0.228406 0.116669
vt 0.443324 0.024245
vt 0.577373 0.038876
vt 0.886876 0.983759
vt 0.846454 0.993412
vt 0.372684 0.118380
vt 0.404679 0.066975
vt 0.414682 0.120078
vt 0.328713 0.024884
vt 0.318068 0.078375
vt 0.509591 0.129087
vt 0.546150 0.128732
vt 0.696396 0.087100
vt 0.638149 0.048439
vt 0.693053 0.022575
vt 0.842739 0.822882
vt 0.615077 0.099862
vt 0.487836 0.203388
vt 0.439218 0.227324
vt 0.424315 0.184267
vt 0.402642 0.026309
vt 0.346222 0.047633
vt 0.609587 0.214737
vt 0.181202 0.019852
vt 0.200412 0.012995
vt 0.188165 0.086865
vt 0.439691 0.146493
vt 0.670374 0.112692
vt 0.466139 0.123125
vt 0.934358 0.932260
vt 0.175918 0.122552
vt 0.300837 0.120037
vt 0.806228 0.863123
vt 0.634098 0.013484
vt 0.562976 0.015636
vn -0.6502 0.0236 0.7594
vn -0.0736 -0.0218 0.9971
vn -0.3262 0.5452 0.7722
vn -0.0377 -0.9169 0.3973
vn -0.3599 -0.9330 -0.0066
vn -0.0413 -0.9972 -0.0618
vn -0.3054 0.8682 0.3910
vn 0.0799 0.9965 0.0235
vn -0.6468 0.7558 -0.1019
vn -0.5653 -0.7129 -0.4149
vn 0.1404 -0.3784 -0.9149
vn -0.7569 -0.4275 0.4943
vn 0.1374 0.6760 -0.7240
vn 0.5575 0.1625 -0.8141
vn 0.4191 -0.0630 -0.9058
vn 0.1404 -0.3784 -0.9150
vn 0.3949 0.4957 0.7735
vn -0.8944 0.1618 0.4169
vn 0.8262 -0.5597 -0.0642
vn 0.6614 -0.3266 0.6752
vn 0.8920 0.0087 0.4519
vn 0.6285 0.7371 -0.2482
vn 0.8975 -0.0030 -0.4410
vn -0.3806 -0.1459 -0.9131
vn -0.9446 -0.0531 -0.3240
vn -0.5863 0.2840 -0.7587
vn -0.9179 -0.3969 0.0017
vn 0.0884 0.9836 0.1574
vn 0.3949 0.4957 0.7736
vn 0.8403 0.5317 0.1056
vn 0.9753 0.1322 -0.1770
vn -0.5862 0.2840 -0.7587
vn 0.1373 0.6761 -0.7239
vn -0.3807 -0.1459 -0.9131
vn 0.6336 -0.4530 -0.6272
vn -0.5654 -0.7129 -0.4149
vn -0.7570 -0.4275 0.4942
vn -0.6468 0.7558 -0.1020
vn -0.3053 0.8683 0.3910
usemtl smallrocks.001
s 1
f 29/29/22 30/30/23 31/31/24
f 32/32/25 33/33/26 34/34/27
f 35/35/28 36/36/29 37/37/30
f 34/34/27 38/38/31 39/39/32
f 29/29/22 40/40/33 30/30/23
f 37/37/30 36/36/29 41/41/34
f 42/42/35 43/43/36 44/44/37
f 45/45/38 31/31/24 30/30/23
f 29/29/22 46/46/39 40/40/33
f 29/29/22 31/31/24 46/46/39
f 32/32/25 47/47/40 48/48/41
f 49/49/40 50/50/42 51/51/41
f 52/52/43 53/53/44 42/42/35
f 54/54/43 55/55/35 41/41/34
f 36/36/29 54/54/43 41/41/34
f 56/56/45 57/57/46 58/58/47
f 38/38/31 33/33/26 59/59/48
f 46/46/39 60/60/48 40/40/33
f 61/61/49 62/62/24 63/63/50
f 51/51/41 45/45/38 30/30/23
f 49/49/40 64/64/51 50/50/42
f 50/50/42 64/64/51 45/45/38
f 61/61/49 35/35/28 62/62/24
f 46/46/39 57/57/46 60/60/48
f 65/65/52 53/53/44 52/52/43
f 65/65/52 49/49/40 53/53/44
f 37/37/30 41/41/34 66/66/53
f 67/67/47 68/68/54 69/69/55
f 70/70/51 54/54/43 61/61/49
f 57/57/46 71/71/31 60/60/48
f 64/64/51 49/49/40 65/65/52
f 30/30/23 40/40/33 72/72/25
f 68/68/54 42/42/35 44/44/37
f 47/47/40 34/34/27 73/73/56
f 56/56/45 71/71/31 57/57/46
f 69/69/55 44/44/37 74/74/57
f 65/65/52 52/52/43 64/64/51
f 42/42/35 53/53/44 75/75/56
f 72/72/25 51/51/41 30/30/23
f 47/47/40 32/32/25 34/34/27
f 42/42/35 75/75/56 43/43/36
f 53/53/44 49/49/40 75/75/56
f 33/33/26 76/76/58 59/59/48
f 76/76/58 33/33/26 32/32/25
f 51/51/41 50/50/42 45/45/38
f 63/63/50 70/70/51 61/61/49
f 77/77/59 58/58/47 57/57/46
f 46/46/39 77/77/59 57/57/46
f 68/68/54 44/44/37 69/69/55
f 33/33/26 38/38/31 34/34/27
f 35/35/28 61/61/49 36/36/29
f 36/36/29 61/61/49 54/54/43
f 46/46/39 31/31/24 78/78/60
f 78/78/60 77/77/59 46/46/39
o smallrock3_smallrocks_0_smallrock3_smallrocks_0.001
v -0.152188 0.283927 0.655104
v -0.050332 0.240752 0.609424
v -0.182834 0.279253 0.510935
v -0.082411 0.016229 0.728319
v -0.084863 0.136479 0.744748
v -0.236189 0.020448 0.724112
v -0.159580 0.225890 0.419735
v -0.159580 0.225890 0.419735
v -0.171372 0.020727 0.416884
v -0.223378 0.270849 0.401965
v -0.237465 0.297326 0.559961
v -0.318920 0.270645 0.388461
v -0.400177 0.263035 0.392347
v -0.400177 0.263035 0.392347
v -0.318920 0.270645 0.388461
v -0.392418 0.125690 0.386766
v -0.296944 0.117461 0.391202
v -0.259950 0.028210 0.410171
v -0.053919 0.198440 0.717752
v -0.014149 0.203623 0.655248
v -0.133931 0.254607 0.730073
v -0.053919 0.198440 0.717752
v -0.002024 0.127287 0.663656
v -0.014149 0.203623 0.655248
v -0.223378 0.270849 0.401965
v -0.312723 0.246913 0.718683
v -0.361296 0.283386 0.588478
v -0.012061 0.012227 0.596762
v -0.068337 0.009912 0.516257
v 0.014968 0.141900 0.592745
v -0.068337 0.009912 0.516257
v -0.012061 0.012227 0.596762
v -0.082411 0.016229 0.728319
v -0.496221 0.261158 0.519247
v -0.490314 0.132207 0.690440
v -0.403290 0.210702 0.711613
v -0.171372 0.020727 0.416884
v -0.236189 0.020448 0.724112
v -0.436337 0.025568 0.499910
v -0.378914 0.047643 0.422021
v -0.259950 0.028210 0.410171
v -0.378914 0.047643 0.422021
v -0.436337 0.025568 0.499910
v -0.500420 0.115338 0.526793
v -0.496221 0.261158 0.519247
v -0.490314 0.132207 0.690440
v -0.133931 0.254607 0.730073
v -0.312723 0.246913 0.718683
v 0.014968 0.141900 0.592745
v -0.403290 0.210702 0.711613
v -0.489323 0.031644 0.701846
v -0.324041 0.011418 0.718617
v -0.489323 0.031644 0.701846
v -0.324041 0.011418 0.718617
v -0.489323 0.031644 0.701846
v -0.490314 0.132207 0.690440
vt 0.747441 0.345854
vt 0.766002 0.299560
vt 0.808964 0.357180
vt 0.707152 0.299800
vt 0.655691 0.285115
vt 0.722078 0.231780
vt 0.852267 0.338147
vt 0.614446 0.476864
vt 0.704438 0.472702
vt 0.598692 0.507563
vt 0.787971 0.381422
vt 0.863492 0.416584
vt 0.861508 0.453144
vt 0.613698 0.583269
vt 0.604550 0.549064
vt 0.667482 0.569382
vt 0.667446 0.531295
vt 0.705514 0.512875
vt 0.716463 0.291088
vt 0.746923 0.276693
vt 0.713298 0.335760
vt 0.624675 0.296546
vt 0.650393 0.334589
vt 0.616435 0.330115
vt 0.857354 0.373972
vt 0.716718 0.415308
vt 0.776004 0.434777
vt 0.699504 0.365964
vt 0.703585 0.409508
vt 0.640306 0.365441
vt 0.839437 0.072439
vt 0.806291 0.045634
vt 0.747187 0.072079
vt 0.805470 0.494992
vt 0.712232 0.511089
vt 0.715675 0.458647
vt 0.879253 0.120337
vt 0.744275 0.138786
vt 0.835103 0.232574
vt 0.872432 0.211101
vt 0.879412 0.159015
vt 0.702592 0.566265
vt 0.721460 0.605394
vt 0.686790 0.635160
vt 0.629652 0.647239
vt 0.701123 0.699694
vt 0.607248 0.253949
vt 0.626769 0.174597
vt 0.780239 0.250160
vt 0.651871 0.137464
vt 0.739176 0.115375
vt 0.732881 0.190948
vt 0.746126 0.249747
vt 0.743742 0.177174
vt 0.742478 0.689693
vt 0.694627 0.104289
vn 0.1444 0.9767 0.1586
vn 0.5896 0.8007 -0.1058
vn 0.3835 0.9025 -0.1962
vn 0.3961 -0.6934 0.6019
vn 0.1820 0.0009 0.9833
vn -0.0408 -0.1231 0.9916
vn 0.6262 0.4664 -0.6247
vn 0.6262 0.4664 -0.6248
vn 0.3306 -0.4293 -0.8405
vn 0.3027 0.5770 -0.7586
vn 0.0059 0.9978 -0.0659
vn -0.0385 0.9900 -0.1357
vn -0.1117 0.9893 -0.0939
vn -0.4681 0.0095 -0.8836
vn 0.0448 0.0096 -0.9989
vn -0.3906 -0.1624 -0.9061
vn 0.0922 -0.0824 -0.9923
vn -0.0433 -0.8134 -0.5801
vn 0.6476 0.3000 0.7004
vn 0.7950 0.5365 0.2831
vn 0.3344 0.7099 0.6199
vn 0.6476 0.3000 0.7005
vn 0.8633 -0.0489 0.5022
vn -0.1638 0.6754 0.7190
vn -0.2052 0.9476 0.2448
vn 0.8338 -0.5509 0.0363
vn 0.7568 -0.1036 -0.6454
vn 0.9234 0.1407 -0.3570
vn -0.0386 -0.9992 0.0128
vn 0.8337 -0.5510 0.0362
vn -0.7421 0.6647 -0.0865
vn -0.8684 0.2128 0.4480
vn -0.3285 0.4028 0.8543
vn -0.0233 -0.9997 -0.0105
vn -0.4258 -0.8568 -0.2909
vn -0.4837 -0.5559 -0.6760
vn -0.4259 -0.8568 -0.2909
vn -0.9132 -0.2208 -0.3426
vn -0.7421 0.6647 -0.0864
vn 0.3343 0.7099 0.6198
vn -0.1638 0.6754 0.7191
vn 0.9234 0.1406 -0.3571
vn -0.7184 -0.4327 0.5447
vn -0.0860 -0.0409 0.9955
vn -0.7185 -0.4326 0.5446
vn -0.0104 -0.9995 -0.0307
vn -0.8683 0.2128 0.4480
usemtl smallrocks.001
s 1
f 79/79/61 80/80/62 81/81/63
f 82/82/64 83/83/65 84/84/66
f 81/81/63 80/80/62 85/85/67
f 86/86/68 87/87/69 88/88/70
f 89/89/71 90/90/72 91/91/73
f 92/92/74 93/93/75 94/94/76
f 95/95/77 96/96/78 94/94/76
f 93/93/75 95/95/77 94/94/76
f 97/97/79 98/98/80 99/99/81
f 100/100/82 101/101/83 102/102/80
f 81/81/63 85/85/67 103/103/70
f 89/89/71 81/81/63 103/103/70
f 79/79/61 81/81/63 89/89/71
f 104/104/84 79/79/61 105/105/85
f 106/106/86 107/107/87 108/108/88
f 109/109/89 110/110/90 111/111/64
f 112/112/91 113/113/92 114/114/93
f 115/115/69 109/109/89 116/116/94
f 117/117/95 118/118/96 119/119/78
f 120/120/96 121/121/97 122/122/98
f 86/86/68 108/108/88 87/87/69
f 123/123/99 122/122/98 124/124/92
f 112/112/91 89/89/71 91/91/73
f 92/92/74 94/94/76 123/123/99
f 125/125/100 83/83/65 100/100/82
f 125/125/100 126/126/101 83/83/65
f 80/80/62 98/98/80 127/127/102
f 98/98/80 80/80/62 99/99/81
f 107/107/87 87/87/69 108/108/88
f 83/83/65 82/82/64 101/101/83
f 126/126/101 128/128/93 83/83/65
f 104/104/84 105/105/85 114/114/93
f 128/128/93 129/129/103 130/130/104
f 131/131/105 117/117/95 132/132/106
f 119/119/78 132/132/106 117/117/95
f 88/88/70 87/87/69 95/95/77
f 108/108/88 101/101/83 106/106/86
f 80/80/62 127/127/102 85/85/67
f 106/106/86 101/101/83 82/82/64
f 109/109/89 111/111/64 116/116/94
f 89/89/71 103/103/70 90/90/72
f 93/93/75 88/88/70 95/95/77
f 124/124/92 122/122/98 133/133/103
f 128/128/93 134/134/107 129/129/103
f 100/100/82 83/83/65 101/101/83
f 102/102/80 101/101/83 108/108/88
f 114/114/93 105/105/85 112/112/91
f 83/83/65 128/128/93 130/130/104
f 87/87/69 96/96/78 95/95/77
f 116/116/94 119/119/78 115/115/69
f 99/99/81 80/80/62 79/79/61
f 104/104/84 99/99/81 79/79/61
f 96/96/78 120/120/96 94/94/76
f 94/94/76 120/120/96 122/122/98
f 94/94/76 122/122/98 123/123/99
f 122/122/98 121/121/97 133/133/103
f 83/83/65 130/130/104 84/84/66
f 119/119/78 116/116/94 132/132/106
f 105/105/85 89/89/71 112/112/91
f 79/79/61 89/89/71 105/105/85
o smallrock4_smallrocks_0_smallrock4_smallrocks_0.001
v 0.796719 0.019514 0.813445
v 0.591214 0.023217 0.640029
v 0.934611 0.032622 0.612934
v 0.889247 0.351711 0.646751
v 0.734928 0.333821 0.950488
v 0.944974 0.333627 0.760378
v 0.561909 0.028319 0.546138
v 0.765525 0.026611 0.434133
v 0.481213 0.037668 0.647261
v 0.969008 0.049214 0.610794
v 0.765525 0.026611 0.434133
v 0.773030 0.109082 0.432031
v 0.649363 0.122933 0.381797
v 0.765525 0.026611 0.434133
v 0.528350 0.079874 0.479950
v 0.649363 0.122933 0.381797
v 0.643830 0.273119 0.382848
v 0.762974 0.010646 0.998476
v 0.662477 0.009762 0.859778
v 0.589084 0.012231 0.961256
v 1.008431 0.013970 0.805916
v 0.825625 0.127447 0.963296
v 0.762974 0.010646 0.998476
v 0.492696 0.244485 0.868614
v 0.481213 0.037668 0.647261
v 0.482933 0.044994 0.875052
v 0.495047 0.352659 0.587269
v 0.491283 0.209576 0.520107
v 0.483599 0.355667 0.763483
v 0.806009 0.350634 0.463364
v 0.719408 0.358775 0.574490
v 0.483599 0.355667 0.763483
v 0.624564 0.261462 0.999449
v 0.697378 0.058755 1.046837
v 0.986330 0.217224 0.656555
v 0.878237 0.257604 0.516601
v 0.997797 0.193547 0.821384
v 1.008431 0.013970 0.805916
v 0.561909 0.028319 0.546138
v 0.486589 0.073992 0.543149
v 0.643830 0.273119 0.382848
v 0.495047 0.352659 0.587269
v 0.533379 0.357090 0.497513
v 0.969008 0.049214 0.610794
v 0.664322 0.352756 0.396991
v 0.806009 0.350634 0.463364
v 0.533379 0.357090 0.497513
v 0.664322 0.352756 0.396991
v 0.889247 0.351711 0.646751
v 0.988578 0.285859 0.752434
v 0.641052 0.315190 0.981266
v 0.848516 0.319826 0.929927
v 0.698667 0.222303 1.050299
v 0.641052 0.315190 0.981266
v 0.664322 0.352756 0.396991
v 0.944974 0.333627 0.760378
v 0.734928 0.333821 0.950488
v 0.589084 0.012231 0.961256
v 0.482933 0.044994 0.875052
v 0.697378 0.058755 1.046837
v 0.848516 0.319826 0.929927
vt 0.751506 0.882482
vt 0.651050 0.900828
vt 0.725961 0.793543
vt 0.284863 0.838972
vt 0.205756 0.941558
vt 0.236322 0.838417
vt 0.616407 0.886735
vt 0.632721 0.800035
vt 0.626220 0.934977
vt 0.195378 0.281400
vt 0.211150 0.175264
vt 0.242677 0.184969
vt 0.261033 0.134121
vt 0.206763 0.840098
vt 0.238426 0.753941
vt 0.260485 0.809819
vt 0.320669 0.147113
vt 0.797588 0.937146
vt 0.732721 0.933129
vt 0.744696 0.979124
vt 0.170452 0.355393
vt 0.208637 0.448379
vt 0.163900 0.474067
vt 0.264100 0.597181
vt 0.205848 0.695993
vt 0.190059 0.609622
vt 0.329654 0.693846
vt 0.280588 0.727384
vt 0.315465 0.625412
vt 0.361347 0.837442
vt 0.337425 0.885370
vt 0.311289 0.997067
vt 0.261263 0.528854
vt 0.182410 0.505701
vt 0.254438 0.311464
vt 0.286354 0.250737
vt 0.236019 0.367990
vt 0.800596 0.818726
vt 0.204969 0.749654
vt 0.231599 0.729089
vt 0.317499 0.798177
vt 0.369816 0.964316
vt 0.338298 0.731980
vt 0.733641 0.781217
vt 0.349399 0.165803
vt 0.332160 0.227027
vt 0.394365 0.936483
vt 0.407328 0.875109
vt 0.318299 0.306978
vt 0.273954 0.350534
vt 0.209594 0.979539
vt 0.281660 0.437028
vt 0.241033 0.503976
vt 0.283780 0.522316
vt 0.349470 0.794651
vt 0.297094 0.358306
vt 0.292115 0.482264
vt 0.171360 0.559752
vt 0.692545 0.990567
vt 0.799665 0.973020
vt 0.193560 0.899122
vn 0.0144 -0.9981 -0.0601
vn -0.0401 -0.9986 -0.0350
vn 0.1696 -0.9746 -0.1463
vn 0.3894 0.9126 -0.1248
vn 0.0906 0.9213 0.3783
vn 0.4528 0.8817 0.1325
vn -0.2905 -0.9210 -0.2597
vn 0.1520 -0.8054 -0.5729
vn -0.8088 -0.5856 -0.0543
vn 0.7532 -0.3525 -0.5554
vn 0.5092 -0.0043 -0.8606
vn -0.0478 -0.2230 -0.9736
vn -0.5915 -0.4421 -0.6743
vn -0.3428 0.0892 -0.9352
vn 0.2315 -0.8554 0.4634
vn 0.0030 -0.9994 -0.0331
vn -0.2581 -0.9281 0.2683
vn 0.7551 -0.6273 0.1904
vn 0.6007 -0.0118 0.7994
vn -0.8778 0.2149 0.4282
vn -0.7995 -0.2098 0.5628
vn -0.9656 0.1308 -0.2246
vn -0.9214 0.0550 -0.3848
vn -0.6314 0.7610 0.1490
vn 0.4315 0.7941 -0.4281
vn 0.0040 0.9997 -0.0259
vn -0.6058 0.1682 0.7776
vn -0.1742 -0.1870 0.9668
vn 0.9163 0.2287 -0.3287
vn 0.7307 0.0942 -0.6761
vn 0.8928 0.1337 0.4301
vn 0.7551 -0.6273 0.1903
vn -0.7984 -0.4747 -0.3705
vn -0.0099 0.9998 -0.0182
vn -0.5580 0.6774 -0.4793
vn 0.0957 0.4726 -0.8761
vn -0.5581 0.6774 -0.4792
vn 0.0957 0.4726 -0.8760
vn 0.8635 0.5012 0.0567
vn -0.3718 0.6399 0.6725
vn 0.5663 0.5112 0.6466
vn 0.1071 0.3279 0.9386
vn -0.3718 0.6398 0.6726
vn 0.0906 0.9213 0.3782
vn 0.5663 0.5111 0.6465
usemtl smallrocks.001
s 1
f 135/135/108 136/136/109 137/137/110
f 138/138/111 139/139/112 140/140/113
f 136/136/109 141/141/114 142/142/115
f 143/143/116 141/141/114 136/136/109
f 144/144/117 145/145/115 146/146/118
f 146/146/118 145/145/115 147/147/119
f 148/148/115 149/149/120 150/150/119
f 151/151/121 146/146/118 147/147/119
f 152/152/122 153/153/123 135/135/108
f 154/154/124 153/153/123 152/152/122
f 155/155/125 156/156/126 157/157/122
f 158/158/127 159/159/116 160/160/128
f 137/137/110 136/136/109 142/142/115
f 161/161/129 162/162/130 163/163/131
f 138/138/111 164/164/132 165/165/133
f 166/166/131 138/138/111 165/165/133
f 139/139/112 138/138/111 166/166/131
f 158/158/127 160/160/128 167/167/134
f 167/167/134 160/160/128 168/168/135
f 153/153/123 154/154/124 136/136/109
f 169/169/136 144/144/117 170/170/137
f 155/155/125 171/171/138 156/156/126
f 144/144/117 169/169/136 155/155/125
f 172/172/139 135/135/108 137/137/110
f 173/173/114 174/174/140 149/149/120
f 162/162/130 149/149/120 174/174/140
f 170/170/137 144/144/117 146/146/118
f 175/175/121 150/150/119 149/149/120
f 166/166/131 165/165/133 176/176/141
f 177/177/142 175/175/121 162/162/130
f 178/178/117 137/137/110 142/142/115
f 178/178/117 172/172/139 137/137/110
f 179/179/143 180/180/132 146/146/118
f 181/181/144 164/164/132 182/182/145
f 176/176/141 164/164/132 181/181/144
f 161/161/129 177/177/142 162/162/130
f 183/183/111 184/184/146 169/169/136
f 171/171/138 155/155/125 169/169/136
f 185/185/147 139/139/112 166/166/131
f 171/171/138 186/186/148 156/156/126
f 187/187/149 168/168/135 156/156/126
f 156/156/126 186/186/148 187/187/149
f 173/173/114 149/149/120 148/148/115
f 162/162/130 159/159/116 163/163/131
f 162/162/130 175/175/121 149/149/120
f 162/162/130 174/174/140 159/159/116
f 163/163/131 158/158/127 188/188/150
f 163/163/131 159/159/116 158/158/127
f 169/169/136 180/180/132 183/183/111
f 176/176/141 165/165/133 164/164/132
f 187/187/149 188/188/150 167/167/134
f 188/188/150 158/158/127 167/167/134
f 174/174/140 173/173/114 159/159/116
f 143/143/116 136/136/109 154/154/124
f 184/184/146 171/171/138 169/169/136
f 184/184/146 186/186/148 171/171/138
f 177/177/142 189/189/143 175/175/121
f 151/151/121 179/179/143 146/146/118
f 152/152/122 135/135/108 172/172/139
f 135/135/108 153/153/123 136/136/109
f 184/184/146 190/190/113 186/186/148
f 190/190/113 184/184/146 183/183/111
f 187/187/149 167/167/134 168/168/135
f 191/191/151 188/188/150 187/187/149
f 160/160/128 192/192/124 168/168/135
f 193/193/128 143/143/116 154/154/124
f 156/156/126 168/168/135 157/157/122
f 152/152/122 194/194/135 154/154/124
f 180/180/132 169/169/136 170/170/137
f 180/180/132 170/170/137 146/146/118
f 191/191/151 187/187/149 186/186/148
f 195/195/152 140/140/113 139/139/112
