# Blender v2.92.0 OBJ File: 'LowPoly Trees.blend'
# www.blender.org
mtllib Tree1.mtl
o Cylinder
v 0.000000 0.000023 -13.502662
v 0.000000 0.630609 -13.502662
v 0.273052 0.000023 -13.345015
v 0.269775 0.672787 -13.345015
v 0.273052 0.000023 -13.029722
v 0.269775 0.672787 -13.029722
v 0.000000 0.000023 -12.872075
v -0.000000 0.630609 -12.872075
v -0.273052 0.000023 -13.029722
v -0.269775 0.588431 -13.029722
v -0.273052 0.000023 -13.345015
v -0.269775 0.588431 -13.345015
v -0.131977 1.682045 -13.300838
v -0.324760 1.643820 -13.414309
v -0.131977 1.682045 -13.073898
v -0.324760 1.643820 -12.960428
v -0.517542 1.605594 -13.073898
v -0.517542 1.605594 -13.300838
v -0.336039 3.839303 -13.287576
v -0.498743 3.778870 -13.387784
v -0.336039 3.839303 -13.087160
v -0.498743 3.778870 -12.986953
v -0.661448 3.718437 -13.087160
v -0.661448 3.718437 -13.287576
v 0.818786 6.167348 -13.241590
v 0.697349 6.139881 -13.307338
v 0.818786 6.241044 -13.121619
v 0.697349 6.287272 -13.067396
v 0.575912 6.259805 -13.133144
v 0.575912 6.186109 -13.253115
v 0.254716 8.044445 -13.231025
v 0.190415 8.004657 -13.274681
v 0.254716 8.044445 -13.143710
v 0.190415 8.004657 -13.100054
v 0.126114 7.964870 -13.143710
v 0.126114 7.964870 -13.231025
v 0.404292 10.168362 -13.231024
v 0.328830 10.173178 -13.274681
v 0.404292 10.168362 -13.143710
v 0.328830 10.173178 -13.100053
v 0.253368 10.177995 -13.143710
v 0.253368 10.177995 -13.231024
v -0.821524 8.694231 -13.208380
v -0.837661 8.661609 -13.229393
v -0.821524 8.694231 -13.166354
v -0.837661 8.661609 -13.145342
v -0.853798 8.628987 -13.166354
v -0.853798 8.628987 -13.208380
v -1.338011 8.860179 -13.196900
v -1.349819 8.848638 -13.206433
v -1.338011 8.860179 -13.177835
v -1.349819 8.848638 -13.168302
v -1.361627 8.837096 -13.177835
v -1.361627 8.837096 -13.196900
v -1.425979 9.090200 -13.191064
v -1.430200 9.085386 -13.194761
v -1.425979 9.090200 -13.183670
v -1.430200 9.085386 -13.179974
v -1.434421 9.080570 -13.183670
v -1.434421 9.080570 -13.191064
v -1.624787 9.127377 -13.189277
v -1.625431 9.124134 -13.191186
v -1.624787 9.127377 -13.185458
v -1.625431 9.124134 -13.183549
v -1.626074 9.120890 -13.185458
v -1.626074 9.120890 -13.189277
v -1.878599 4.988295 -13.240039
v -1.913479 4.903997 -13.292710
v -1.878599 4.988295 -13.134697
v -1.913479 4.903997 -13.082026
v -1.948359 4.819699 -13.134697
v -1.948359 4.819699 -13.240039
v -2.546856 6.221522 -13.214777
v -2.588952 6.199575 -13.242186
v -2.546856 6.221522 -13.159959
v -2.588952 6.199575 -13.132549
v -2.631048 6.177628 -13.159959
v -2.631048 6.177628 -13.214777
v -3.036173 4.824182 -13.203875
v -3.033422 4.795724 -13.220382
v -3.036173 4.824182 -13.170861
v -3.033422 4.795724 -13.154354
v -3.030671 4.767266 -13.170861
v -3.030671 4.767266 -13.203875
v 0.750527 6.784812 -14.381108
v 0.697349 6.757668 -14.396494
v 0.750527 6.842506 -14.359359
v 0.697349 6.873051 -14.352995
v 0.644172 6.845906 -14.368381
v 0.644172 6.788214 -14.390130
v 0.726352 7.598268 -14.735141
v 0.697350 7.593946 -14.751601
v 0.726352 7.611731 -14.704327
v 0.697350 7.620871 -14.689972
v 0.668347 7.616549 -14.706432
v 0.668347 7.603087 -14.737247
v 0.716444 6.719911 -15.279391
v 0.697350 6.708729 -15.280087
v 0.716444 6.741955 -15.281446
v 0.697350 6.752816 -15.284198
v 0.678255 6.741633 -15.284894
v 0.678255 6.719590 -15.282839
vt 1.216858 -1.163169
vt 1.216858 -0.950864
vt 1.398513 -0.936664
vt 1.400720 -1.163169
vt 0.613763 -1.209023
vt 0.613763 -0.978784
vt 0.397958 -0.978784
vt 0.397958 -1.209023
vt 1.400720 -1.163169
vt 1.398513 -0.936664
vt 1.216858 -0.950864
vt 1.216858 -1.163169
vt 1.035204 -0.965064
vt 1.032998 -1.163169
vt 1.127990 -0.596868
vt 0.998179 -0.609737
vt 0.527291 -1.367125
vt 0.527291 -1.113739
vt 0.255741 -1.113739
vt 0.255741 -1.367125
vt 1.032998 -1.163169
vt 1.035204 -0.965064
vt 0.998179 -0.609737
vt 0.868367 -0.622607
vt 0.771468 0.088742
vt 0.881026 0.109089
vt 0.868367 -0.622607
vt 0.583526 -0.633387
vt 0.428195 -0.633387
vt 0.489243 -0.675717
vt 0.293789 -0.675717
vt 1.127990 -0.596868
vt 0.771468 0.088742
vt 1.604654 0.944367
vt 1.604654 0.919555
vt 0.881026 0.109089
vt 0.574448 0.104887
vt 0.437272 0.104887
vt 0.477822 0.234138
vt 0.305211 0.234138
vt 0.990584 0.129435
vt 0.990584 0.129435
vt 1.686424 0.903991
vt 1.301778 1.518426
vt 1.345077 1.531822
vt 1.768194 0.938051
vt 1.686424 0.953615
vt 1.768194 0.913239
vt 0.542973 0.901611
vt 0.460858 0.926831
vt 0.353917 2.062782
vt 0.429117 2.062782
vt 0.429117 3.015821
vt 0.353917 3.015821
vt 1.345077 1.531822
vt 1.301778 1.518426
vt 0.535741 1.544007
vt 0.475979 1.544007
vt 0.334891 1.296793
vt 0.438217 1.328529
vt 1.388373 1.545217
vt 1.388373 1.545217
vt 1.489092 2.260296
vt 1.438279 2.261917
vt 1.387466 2.263539
vt 1.387466 2.263539
vt 1.438279 2.261917
vt 1.489092 2.260296
vt 0.535741 2.270871
vt 0.475979 2.270871
vt 0.641947 1.742020
vt 0.652813 1.753003
vt 0.663679 1.763987
vt 0.307948 1.815973
vt 0.315899 1.819858
vt 0.652813 1.753003
vt 0.641947 1.742020
vt 0.663679 1.763987
vt 0.409615 2.348771
vt 0.373419 2.348771
vt 0.383307 2.438389
vt 0.399727 2.438389
vt 0.394701 2.543236
vt 0.388333 2.543236
vt 0.299997 1.812086
vt 0.427712 2.362819
vt 0.407938 2.443359
vt 0.315899 1.819858
vt 0.307948 1.815973
vt 0.385149 2.545310
vt 0.389872 2.560599
vt 0.388228 2.561997
vt 0.256665 1.897301
vt 0.253823 1.895681
vt 0.253823 1.895681
vt 0.256665 1.897301
vt 0.375096 2.443359
vt 0.397885 2.545310
vt 0.389872 2.563393
vt 0.393161 2.560599
vt 0.394806 2.561997
vt 0.393161 2.563393
vt 0.250981 1.894059
vt 0.122362 1.908726
vt 0.121929 1.907634
vt 0.122797 1.909818
vt 0.122797 1.909818
vt 0.122362 1.908726
vt 0.436880 0.708375
vt 0.346153 0.708375
vt -0.048110 0.516277
vt -0.071596 0.487895
vt -0.071596 0.487895
vt -0.048110 0.516277
vt -0.095084 0.459514
vt -0.095084 0.459514
vt -0.554777 0.916700
vt -0.526432 0.924089
vt -0.526432 0.924089
vt -0.554777 0.916700
vt -0.498086 0.931478
vt -0.498086 0.931478
vt 0.415123 1.293141
vt 0.367910 1.293141
vt -0.823866 0.441861
vt -0.825719 0.451442
vt -0.825719 0.451442
vt -0.823866 0.441861
vt -0.827572 0.461023
vt -0.827572 0.461023
vt 1.650616 1.122272
vt 1.686424 1.111987
vt 1.686424 1.150834
vt 1.650616 1.141695
vt 1.322924 1.112925
vt 1.308037 1.132669
vt 1.722231 1.140550
vt 1.722231 1.121126
vt 1.666895 1.401155
vt 1.666895 1.396622
vt 1.705953 1.399532
vt 1.686424 1.402609
vt 1.686424 1.393544
vt 1.705953 1.394999
vt 1.565244 1.391312
vt 1.544153 1.395920
vt 1.673567 1.106589
vt 1.673567 1.099167
vt 1.699282 1.106697
vt 1.686424 1.110353
vt 1.686424 1.095510
vt 1.699282 1.099275
vn 0.5022 0.0013 -0.8648
vn 1.0000 0.0049 0.0000
vn 0.5022 0.0013 0.8648
vn -0.5023 0.0014 0.8647
vn 0.4638 0.2228 0.8574
vn -1.0000 0.0056 0.0000
vn -0.5023 0.0014 -0.8647
vn 0.0000 -1.0000 0.0000
vn -0.5088 -0.0300 -0.8603
vn -0.4932 -0.0826 -0.8660
vn -0.4932 -0.0826 0.8660
vn 0.9291 0.3698 0.0000
vn -0.9716 -0.2367 0.0000
vn 0.4638 0.2228 -0.8574
vn -0.8920 0.4405 -0.1013
vn -0.5088 -0.0300 0.8604
vn 0.9956 0.0942 0.0000
vn -0.9977 -0.0680 0.0000
vn 0.5038 0.0524 0.8623
vn 0.5038 0.0524 -0.8623
vn -0.4664 -0.1093 -0.8778
vn 0.4751 -0.2075 0.8551
vn 0.5450 -0.2517 -0.7998
vn -0.4713 0.2576 -0.8435
vn -0.5475 0.2836 0.7873
vn 0.8939 -0.4368 0.1005
vn -0.9984 0.0574 0.0000
vn -0.4710 -0.1206 0.8738
vn 0.9510 0.2912 -0.1035
vn -0.9644 -0.2493 0.0886
vn 0.4648 0.1549 0.8718
vn 0.4634 0.1427 -0.8746
vn 0.0637 0.9980 0.0000
vn 0.5359 -0.0360 0.8435
vn 0.5360 -0.0360 -0.8435
vn -0.5354 0.0325 -0.8440
vn -0.5354 0.0325 0.8440
vn 0.9975 -0.0703 0.0000
vn -0.3064 -0.4218 -0.8534
vn 0.1430 0.5002 -0.8540
vn -0.3064 -0.4218 0.8534
vn 0.5169 0.8561 0.0000
vn -0.5610 -0.8278 0.0000
vn 0.2614 0.4650 0.8458
vn 0.2614 0.4650 -0.8458
vn -0.9581 -0.2864 0.0000
vn -0.2087 -0.4636 -0.8611
vn -0.2086 -0.4636 0.8611
vn 0.3059 0.9521 0.0000
vn -0.3792 -0.9253 0.0000
vn 0.1430 0.5002 0.8540
vn -0.1177 -0.5182 -0.8471
vn 0.4879 0.2077 0.8478
vn 0.4879 0.2078 -0.8478
vn -0.5400 -0.1420 -0.8296
vn -0.5399 -0.1420 0.8297
vn 0.9340 0.3572 0.0000
vn -0.9809 0.1947 0.0000
vn -0.1177 -0.5181 0.8472
vn 0.1838 0.9830 0.0000
vn -0.2059 -0.9786 0.0000
vn 0.0909 0.5312 0.8423
vn 0.0909 0.5313 -0.8423
vn -0.6502 -0.7598 0.0000
vn 0.3108 0.4564 0.8337
vn 0.3108 0.4564 -0.8337
vn -0.3668 -0.3910 -0.8442
vn -0.3668 -0.3910 0.8442
vn 0.5974 0.8020 0.0000
vn -0.5188 -0.2421 -0.8199
vn -0.5188 -0.2421 0.8199
vn 0.8792 0.4764 0.0000
vn -0.8934 -0.4492 0.0000
vn 0.4794 0.2797 0.8319
vn 0.4794 0.2797 -0.8318
vn -0.0039 -0.5221 -0.8529
vn -0.0039 -0.5221 0.8529
vn -0.1404 0.9901 0.0000
vn 0.0484 -0.9988 0.0000
vn -0.1045 0.5415 0.8341
vn -0.1045 0.5415 -0.8341
vn -0.4844 -0.7609 -0.4318
vn -0.4299 0.8231 0.3710
vn 0.9985 0.0398 -0.0369
vn -0.9985 0.0402 -0.0373
vn 0.4778 0.7998 0.3634
vn 0.4488 -0.7757 -0.4437
vn -0.9995 0.0192 -0.0260
vn 0.3951 0.3819 0.8355
vn 0.4514 -0.3468 -0.8222
vn -0.3865 -0.3562 -0.8508
vn -0.4551 0.3678 0.8110
vn 0.9995 0.0191 -0.0259
vn -0.9992 0.0095 -0.0386
vn 0.4898 0.8646 -0.1120
vn 0.4596 -0.8868 0.0479
vn -0.4947 -0.8677 0.0479
vn -0.4451 0.8879 -0.1161
vn 0.9992 0.0095 -0.0383
usemtl bark
s off
f 1/1/1 2/2/1 4/3/1 3/4/1
f 3/5/2 4/6/2 6/7/2 5/8/2
f 5/9/3 6/10/3 8/11/3 7/12/3
f 7/12/4 8/11/4 10/13/4 9/14/4
f 8/11/5 6/10/5 15/15/5 16/16/5
f 9/17/6 10/18/6 12/19/6 11/20/6
f 11/21/7 12/22/7 2/2/7 1/1/7
f 1/1/8 3/4/8 5/9/8 7/12/8 9/14/8 11/21/8
f 14/23/9 18/24/9 24/25/9 20/26/9
f 2/2/10 12/22/10 18/24/10 14/23/10
f 10/13/11 8/11/11 16/16/11 17/27/11
f 6/7/12 4/6/12 13/28/12 15/29/12
f 12/19/13 10/18/13 17/30/13 18/31/13
f 4/3/14 2/2/14 14/23/14 13/32/14
f 24/25/15 23/33/15 29/34/15 30/35/15
f 17/27/16 16/16/16 22/36/16 23/33/16
f 15/29/17 13/28/17 19/37/17 21/38/17
f 18/31/18 17/30/18 23/39/18 24/40/18
f 16/16/19 15/15/19 21/41/19 22/36/19
f 13/32/20 14/23/20 20/26/20 19/42/20
f 26/43/21 30/35/21 36/44/21 32/45/21
f 22/36/22 21/41/22 27/46/22 28/47/22
f 19/42/23 20/26/23 26/43/23 25/48/23
f 20/26/24 24/25/24 30/35/24 26/43/24
f 23/33/25 22/36/25 28/47/25 29/34/25
f 21/38/26 19/37/26 25/49/26 27/50/26
f 36/51/27 35/52/27 41/53/27 42/54/27
f 29/34/28 28/47/28 34/55/28 35/56/28
f 27/50/29 25/49/29 31/57/29 33/58/29
f 30/59/30 29/60/30 35/52/30 36/51/30
f 28/47/31 27/46/31 33/61/31 34/55/31
f 25/48/32 26/43/32 32/45/32 31/62/32
f 37/63/33 38/64/33 42/65/33 41/66/33 40/67/33 39/68/33
f 34/55/34 33/61/34 39/68/34 40/67/34
f 31/62/35 32/45/35 38/64/35 37/63/35
f 32/45/36 36/44/36 42/65/36 38/64/36
f 35/56/37 34/55/37 40/67/37 41/66/37
f 33/58/38 31/57/38 37/69/38 39/70/38
f 36/44/39 48/71/39 44/72/39 32/45/39
f 43/73/40 44/72/40 50/74/40 49/75/40
f 34/55/41 46/76/41 47/77/41 35/56/41
f 31/62/42 43/73/42 45/78/42 33/61/42
f 35/52/43 47/79/43 48/80/43 36/51/43
f 33/61/44 45/78/44 46/76/44 34/55/44
f 32/45/45 44/72/45 43/73/45 31/62/45
f 54/81/46 53/82/46 59/83/46 60/84/46
f 44/72/47 48/71/47 54/85/47 50/74/47
f 47/79/48 46/86/48 52/87/48 53/82/48
f 45/78/49 43/73/49 49/75/49 51/88/49
f 48/80/50 47/79/50 53/82/50 54/81/50
f 46/76/51 45/78/51 51/88/51 52/89/51
f 56/90/52 60/84/52 66/91/52 62/92/52
f 52/89/53 51/88/53 57/93/53 58/94/53
f 49/75/54 50/74/54 56/95/54 55/96/54
f 50/97/55 54/81/55 60/84/55 56/90/55
f 53/82/56 52/87/56 58/98/56 59/83/56
f 51/88/57 49/75/57 55/96/57 57/93/57
f 61/99/58 62/92/58 66/91/58 65/100/58 64/101/58 63/102/58
f 59/103/59 58/94/59 64/104/59 65/105/59
f 57/93/60 55/96/60 61/106/60 63/107/60
f 60/84/61 59/83/61 65/100/61 66/91/61
f 58/94/62 57/93/62 63/107/62 64/104/62
f 55/96/63 56/95/63 62/108/63 61/106/63
f 24/40/64 23/39/64 71/109/64 72/110/64
f 21/41/65 69/111/65 70/112/65 22/36/65
f 20/26/66 68/113/66 67/114/66 19/42/66
f 24/25/67 72/115/67 68/113/67 20/26/67
f 22/36/68 70/112/68 71/116/68 23/33/68
f 19/42/69 67/114/69 69/111/69 21/41/69
f 72/115/70 78/117/70 74/118/70 68/113/70
f 70/112/71 76/119/71 77/120/71 71/116/71
f 67/114/72 73/121/72 75/122/72 69/111/72
f 72/110/73 71/109/73 77/123/73 78/124/73
f 69/111/74 75/122/74 76/119/74 70/112/74
f 68/113/75 74/118/75 73/121/75 67/114/75
f 68/113/76 72/115/76 84/125/76 80/126/76
f 71/116/77 70/112/77 82/127/77 83/128/77
f 69/111/78 67/114/78 79/129/78 81/130/78
f 71/116/79 83/128/79 84/125/79 72/115/79
f 70/112/80 69/111/80 81/130/80 82/127/80
f 67/114/81 68/113/81 80/126/81 79/129/81
f 26/43/82 30/35/82 90/131/82 86/132/82
f 28/47/83 88/133/83 89/134/83 29/34/83
f 25/49/84 85/135/84 87/136/84 27/50/84
f 29/34/85 89/134/85 90/131/85 30/35/85
f 27/46/86 87/137/86 88/133/86 28/47/86
f 26/43/87 86/132/87 85/138/87 25/48/87
f 89/134/88 95/139/88 96/140/88 90/131/88
f 87/137/89 93/141/89 94/142/89 88/133/89
f 86/132/90 92/143/90 91/144/90 85/138/90
f 86/132/91 90/131/91 96/140/91 92/143/91
f 88/133/92 94/142/92 95/139/92 89/134/92
f 85/135/93 91/145/93 93/146/93 87/136/93
f 90/131/94 89/134/94 101/147/94 102/148/94
f 88/133/95 87/137/95 99/149/95 100/150/95
f 85/138/96 86/132/96 98/151/96 97/152/96
f 90/131/97 102/148/97 98/151/97 86/132/97
f 89/134/98 88/133/98 100/150/98 101/147/98
f 87/137/99 85/138/99 97/152/99 99/149/99
o Plane.001
v -2.766204 6.799202 -11.902822
v 0.939238 5.921624 -12.874678
v -2.982805 7.792197 -13.625334
v 0.722637 6.914618 -14.597189
v -2.766204 6.799202 -11.902822
v 0.939238 5.921624 -12.874678
v -2.982805 7.792197 -13.625334
v 0.722637 6.914618 -14.597189
v 3.103199 6.667952 -13.600362
v -0.955085 5.364584 -12.174263
v 3.641258 4.492299 -14.057611
v -0.417026 3.188931 -12.631513
v 3.103199 6.667952 -13.600362
v -0.955085 5.364584 -12.174263
v 3.641258 4.492299 -14.057611
v -0.417026 3.188931 -12.631513
v -3.078104 9.572262 -11.401597
v 0.371851 7.727665 -11.776058
v -2.887538 10.304509 -13.252948
v 0.562416 8.459912 -13.627409
v -3.078104 9.572262 -11.401597
v 0.371851 7.727665 -11.776058
v -2.887538 10.304509 -13.252948
v 0.562416 8.459912 -13.627409
v -1.550788 6.539376 -11.483185
v 0.183302 4.924389 -12.202919
v -2.346356 6.066365 -12.338611
v -0.612266 4.451378 -13.058346
v -1.550788 6.539376 -11.483185
v 0.183302 4.924389 -12.202919
v -2.346356 6.066365 -12.338611
v -0.612266 4.451378 -13.058346
v -4.213268 5.679647 -12.356126
v -2.251385 5.014100 -12.876395
v -3.957479 6.930922 -12.992249
v -1.995596 6.265374 -13.512518
v -4.213268 5.679647 -12.356126
v -2.251385 5.014100 -12.876395
v -3.957479 6.930922 -12.992249
v -1.995596 6.265374 -13.512518
v 0.544554 6.399389 -13.348971
v 1.573205 4.946257 -15.755547
v 0.895842 8.147364 -14.254276
v 1.924494 6.694232 -16.660852
v 0.544554 6.399389 -13.348971
v 1.573205 4.946257 -15.755547
v 0.895842 8.147364 -14.254276
v 1.924494 6.694232 -16.660852
v 0.500696 11.537251 -11.413597
v 0.240167 7.837846 -12.714164
v 0.547192 12.197480 -13.300906
v 0.286662 8.498075 -14.601473
v 0.500696 11.537251 -11.413597
v 0.240167 7.837846 -12.714164
v 0.547192 12.197480 -13.300906
v 0.286662 8.498075 -14.601473
v -1.608990 9.779482 -11.839785
v 0.125100 8.164495 -12.559519
v -2.404558 9.306471 -12.695210
v -0.670467 7.691483 -13.414945
v -1.608990 9.779482 -11.839785
v 0.125100 8.164495 -12.559519
v -2.404558 9.306471 -12.695210
v -0.670467 7.691483 -13.414945
v 1.812636 11.512825 -13.790024
v 0.722639 7.839420 -12.916559
v 0.064720 12.195908 -13.098511
v -1.025277 8.522501 -12.225046
v 1.812636 11.512825 -13.790024
v 0.722639 7.839420 -12.916559
v 0.064720 12.195908 -13.098511
v -1.025277 8.522501 -12.225046
v -3.364518 8.129028 -13.860296
v 0.085436 7.318976 -12.161303
v -3.173953 6.510134 -15.019117
v 0.276001 5.700082 -13.320124
v -3.364518 8.129028 -13.860296
v 0.085436 7.318976 -12.161303
v -3.173953 6.510134 -15.019117
v 0.276001 5.700082 -13.320124
v -5.022497 5.794796 -11.535172
v -1.550328 4.758109 -11.421488
v -4.950854 5.769313 -13.955643
v -1.478687 4.732627 -13.841958
v -5.022497 5.794796 -11.535172
v -1.550328 4.758109 -11.421488
v -4.950854 5.769313 -13.955643
v -1.478687 4.732627 -13.841958
v -5.731964 6.373517 -12.918656
v -2.259797 5.892568 -11.993275
v -5.660323 4.346127 -14.241162
v -2.188155 3.865178 -13.315780
v -5.731964 6.373517 -12.918656
v -2.259797 5.892568 -11.993275
v -5.660323 4.346127 -14.241162
v -2.188155 3.865178 -13.315780
v 0.737099 5.638045 -13.532959
v 2.809010 5.978454 -15.666649
v -0.339962 7.115167 -14.343174
v 1.731949 7.455575 -16.476864
v 0.737099 5.638045 -13.532959
v 2.809010 5.978454 -15.666649
v -0.339962 7.115167 -14.343174
v 1.731949 7.455575 -16.476864
v 3.037759 5.513390 -11.832520
v -0.662714 4.329377 -12.423753
v 3.348888 5.527506 -13.808121
v -0.351585 4.343493 -14.399354
v 3.037759 5.513390 -11.832520
v -0.662714 4.329377 -12.423753
v 3.348888 5.527506 -13.808121
v -0.351585 4.343493 -14.399354
vt 0.000000 0.000000
vt 0.000000 1.000000
vt 1.000000 1.000000
vt 1.000000 0.000000
vt 0.090847 0.287094
vt 1.001749 0.286237
vt 1.002165 0.727531
vt 0.091262 0.728389
vt 0.000000 0.291437
vt 0.000000 0.736467
vt 1.000000 0.736467
vt 1.000000 0.291437
vt 0.090847 0.287094
vt 1.001749 0.286237
vt 1.002165 0.727531
vt 0.091262 0.728389
vt 0.000000 0.277344
vt 0.000000 0.750000
vt 1.000000 0.750000
vt 1.000000 0.277344
vt 0.000000 0.277344
vt 1.000000 0.277344
vt 1.000000 0.750000
vt 0.000000 0.750000
vt 0.000000 0.289062
vt 0.000000 0.757812
vt 1.000000 0.757812
vt 1.000000 0.289062
vt 0.000000 0.289062
vt 1.000000 0.289062
vt 1.000000 0.757812
vt 0.000000 0.757812
vt 0.000000 0.285156
vt 0.000000 0.761719
vt 1.000000 0.761719
vt 1.000000 0.285156
vt 0.000000 0.285156
vt 1.000000 0.285156
vt 1.000000 0.761719
vt 0.000000 0.761719
vt 0.000000 0.257333
vt 0.000000 0.764370
vt 1.000000 0.764370
vt 1.000000 0.257333
vt 1.001729 0.770133
vt 0.001750 0.776730
vt -0.001729 0.249398
vt 0.998250 0.242801
vt 0.000000 0.285156
vt 0.000000 0.750000
vt 1.000000 0.750000
vt 1.000000 0.285156
vt 0.000000 0.281250
vt 1.000000 0.281250
vt 1.000000 0.757812
vt 0.000000 0.757812
vt 0.000000 0.289062
vt 0.000000 0.757812
vt 1.000000 0.757812
vt 1.000000 0.289062
vt 0.000000 0.289062
vt 1.000000 0.289062
vt 1.000000 0.757812
vt 0.000000 0.757812
vt 0.000000 0.285156
vt 0.000000 0.750000
vt 1.000000 0.750000
vt 1.000000 0.285156
vt 0.000000 0.281250
vt 1.000000 0.281250
vt 1.000000 0.757812
vt 0.000000 0.757812
vt 0.000000 0.257333
vt 0.000000 0.764370
vt 1.000000 0.764370
vt 1.000000 0.257333
vt 0.090847 0.287094
vt 1.001749 0.286237
vt 1.002165 0.727531
vt 0.091262 0.728389
vt 0.000000 0.285156
vt 0.000000 0.761719
vt 1.000000 0.761719
vt 1.000000 0.285156
vt 0.000000 0.285156
vt 1.000000 0.285156
vt 1.000000 0.761719
vt 0.000000 0.761719
vt 0.000000 0.285156
vt 0.000000 0.761719
vt 1.000000 0.761719
vt 1.000000 0.285156
vt 0.000000 0.285156
vt 1.000000 0.285156
vt 1.000000 0.761719
vt 0.000000 0.761719
vt 0.000000 0.257333
vt 0.000000 0.764370
vt 1.000000 0.764370
vt 1.000000 0.257333
vt 1.001729 0.770133
vt 0.001750 0.776730
vt -0.001729 0.249398
vt 0.998250 0.242801
vt 0.000000 0.291437
vt 0.000000 0.736467
vt 1.000000 0.736467
vt 1.000000 0.291437
vt 0.090847 0.287094
vt 1.001749 0.286237
vt 1.002165 0.727531
vt 0.091262 0.728389
vn -0.3151 -0.8388 -0.4439
vn 0.3151 0.8388 0.4439
vn -0.3598 0.1059 -0.9270
vn 0.3598 -0.1059 0.9270
vn -0.4694 -0.8035 -0.3661
vn 0.4694 0.8035 0.3661
vn -0.3335 -0.6587 0.6744
vn 0.3335 0.6587 -0.6744
vn -0.3525 -0.3658 -0.8613
vn 0.3525 0.3658 0.8613
vn -0.9225 -0.0143 -0.3857
vn 0.9225 0.0143 0.3857
vn -0.9975 0.0703 0.0000
vn 0.9975 -0.0703 -0.0000
vn 0.3991 0.0983 0.9116
vn -0.3991 -0.0983 -0.9116
vn -0.4694 -0.5498 0.6909
vn 0.4694 0.5498 -0.6909
vn -0.2861 -0.9582 0.0016
vn 0.2861 0.9582 -0.0016
vn -0.2861 -0.5306 0.7979
vn 0.2861 0.5306 -0.7979
vn -0.4804 -0.6644 -0.5725
vn 0.4804 0.6644 0.5725
vn -0.2987 0.9535 -0.0402
vn 0.2987 -0.9535 0.0402
usemtl Leaf
s off
f 103/153/100 105/154/100 106/155/100 104/156/100
f 107/157/101 108/158/101 110/159/101 109/160/101
f 111/161/102 113/162/102 114/163/102 112/164/102
f 115/165/103 116/166/103 118/167/103 117/168/103
f 119/169/104 121/170/104 122/171/104 120/172/104
f 123/173/105 124/174/105 126/175/105 125/176/105
f 127/177/106 129/178/106 130/179/106 128/180/106
f 131/181/107 132/182/107 134/183/107 133/184/107
f 135/185/108 137/186/108 138/187/108 136/188/108
f 139/189/109 140/190/109 142/191/109 141/192/109
f 143/193/110 145/194/110 146/195/110 144/196/110
f 147/197/111 148/198/111 150/199/111 149/200/111
f 151/201/112 153/202/112 154/203/112 152/204/112
f 155/205/113 156/206/113 158/207/113 157/208/113
f 159/209/106 161/210/106 162/211/106 160/212/106
f 163/213/107 164/214/107 166/215/107 165/216/107
f 167/217/114 169/218/114 170/219/114 168/220/114
f 171/221/115 172/222/115 174/223/115 173/224/115
f 175/225/116 177/226/116 178/227/116 176/228/116
f 179/229/117 180/230/117 182/231/117 181/232/117
f 183/233/118 185/234/118 186/235/118 184/236/118
f 187/237/119 188/238/119 190/239/119 189/240/119
f 191/241/120 193/242/120 194/243/120 192/244/120
f 195/245/121 196/246/121 198/247/121 197/248/121
f 199/249/122 201/250/122 202/251/122 200/252/122
f 203/253/123 204/254/123 206/255/123 205/256/123
f 207/257/124 209/258/124 210/259/124 208/260/124
f 211/261/125 212/262/125 214/263/125 213/264/125
