{
  "accessors": [
    {
      "bufferView": 2,
      "componentType": 5126,
      "count": 10366,
      "max": [
        0.5552489757537842,
        0.6285369992256165,
        0.12759999930858612
      ],
      "min": [
        -0.8973100185394287,
        -0.3367930054664612,
        -0.10972899943590164
      ],
      "type": "VEC3"
    },
    {
      "bufferView": 2,
      "byteOffset": 124392,
      "componentType": 5126,
      "count": 10366,
      "max": [
        0.999303936958313,
        0.9988313913345337,
        0.9982377290725708
      ],
      "min": [
        -0.9999446868896484,
        -0.9993925094604492,
        -0.9994651675224304
      ],
      "type": "VEC3"
    },
    {
      "bufferView": 3,
      "componentType": 5126,
      "count": 10366,
      "max": [
        0.9999918937683105,
        0.9997460842132568,
        0.9999993443489075,
        1.0
      ],
      "min": [
        -0.9999175667762756,
        -0.9999998211860657,
        -0.9999895095825195,
        -1.0
      ],
      "type": "VEC4"
    },
    {
      "bufferView": 1,
      "componentType": 5126,
      "count": 10366,
      "max": [
        0.9994999766349792,
        0.9976000189781189
      ],
      "min": [
        0.0005000000237487257,
        0.0005000000237487257
      ],
      "type": "VEC2"
    },
    {
      "bufferView": 0,
      "componentType": 5125,
      "count": 29754,
      "type": "SCALAR"
    },
    {
      "bufferView": 2,
      "byteOffset": 248784,
      "componentType": 5126,
      "count": 788,
      "max": [
        -0.7387930154800415,
        0.6375250220298767,
        0.11341100186109543
      ],
      "min": [
        -0.7949730157852173,
        0.5837299823760986,
        -0.10504200309515
      ],
      "type": "VEC3"
    },
    {
      "bufferView": 2,
      "byteOffset": 258240,
      "componentType": 5126,
      "count": 788,
      "max": [
        0.9995154738426208,
        0.9998942613601685,
        0.9950485229492188
      ],
      "min": [
        -0.9957723617553711,
        -0.9968799352645874,
        -0.9977357983589172
      ],
      "type": "VEC3"
    },
    {
      "bufferView": 3,
      "byteOffset": 165856,
      "componentType": 5126,
      "count": 788,
      "max": [
        0.9998141527175903,
        0.999681293964386,
        0.9998735189437866,
        1.0
      ],
      "min": [
        -0.9990520477294922,
        -0.9802806377410889,
        -0.9999893307685852,
        1.0
      ],
      "type": "VEC4"
    },
    {
      "bufferView": 1,
      "byteOffset": 82928,
      "componentType": 5126,
      "count": 788,
      "max": [
        0.9990000128746033,
        0.9994999766349792
      ],
      "min": [
        0.0005000000237487257,
        0.0005000000237487257
      ],
      "type": "VEC2"
    },
    {
      "bufferView": 0,
      "byteOffset": 119016,
      "componentType": 5125,
      "count": 3150,
      "type": "SCALAR"
    },
    {
      "bufferView": 2,
      "byteOffset": 267696,
      "componentType": 5126,
      "count": 43987,
      "max": [
        0.9829019904136658,
        1.0,
        0.43639901280403137
      ],
      "min": [
        -0.9829019904136658,
        -1.0,
        -0.43639901280403137
      ],
      "type": "VEC3"
    },
    {
      "bufferView": 2,
      "byteOffset": 795540,
      "componentType": 5126,
      "count": 43987,
      "max": [
        1.0,
        0.9998127818107605,
        0.9999740123748779
      ],
      "min": [
        -0.9997956156730652,
        -0.9998732805252075,
        -0.9999693632125854
      ],
      "type": "VEC3"
    },
    {
      "bufferView": 3,
      "byteOffset": 178464,
      "componentType": 5126,
      "count": 43987,
      "max": [
        0.9999756217002869,
        0.999999463558197,
        0.9999998211860657,
        1.0
      ],
      "min": [
        -0.9999878406524658,
        -0.9997525215148926,
        -1.0,
        -1.0
      ],
      "type": "VEC4"
    },
    {
      "bufferView": 1,
      "byteOffset": 89232,
      "componentType": 5126,
      "count": 43987,
      "max": [
        0.9994999766349792,
        0.9916999936103821
      ],
      "min": [
        0.0005000000237487257,
        0.0005000000237487257
      ],
      "type": "VEC2"
    },
    {
      "bufferView": 0,
      "byteOffset": 131616,
      "componentType": 5125,
      "count": 123180,
      "type": "SCALAR"
    }
  ],
  "asset": {
    "extras": {
      "author": "shedmon (https://sketchfab.com/shedmon)",
      "license": "CC-BY-4.0 (http://creativecommons.org/licenses/by/4.0/)",
      "source": "https://sketchfab.com/3d-models/deer-thing-29d688247080467e8d6f56f829077a3b",
      "title": "Deer Thing"
    },
    "generator": "Sketchfab-12.65.0",
    "version": "2.0"
  },
  "bufferViews": [
    {
      "buffer": 0,
      "byteLength": 624336,
      "name": "floatBufferViews",
      "target": 34963
    },
    {
      "buffer": 0,
      "byteLength": 441128,
      "byteOffset": 624336,
      "byteStride": 8,
      "name": "floatBufferViews",
      "target": 34962
    },
    {
      "buffer": 0,
      "byteLength": 1323384,
      "byteOffset": 1065464,
      "byteStride": 12,
      "name": "floatBufferViews",
      "target": 34962
    },
    {
      "buffer": 0,
      "byteLength": 882256,
      "byteOffset": 2388848,
      "byteStride": 16,
      "name": "floatBufferViews",
      "target": 34962
    }
  ],
  "buffers": [
    {
      "byteLength": 3271104,
      "uri": "scene.bin"
    }
  ],
  "images": [
    {
      "uri": "textures/body_baseColor.jpeg"
    },
    {
      "uri": "textures/body_metallicRoughness.png"
    },
    {
      "uri": "textures/body_normal.png"
    },
    {
      "uri": "textures/eyes_baseColor.jpeg"
    },
    {
      "uri": "textures/eyes_metallicRoughness.png"
    },
    {
      "uri": "textures/eyes_normal.png"
    },
    {
      "uri": "textures/teeths_baseColor.jpeg"
    },
    {
      "uri": "textures/teeths_metallicRoughness.png"
    },
    {
      "uri": "textures/teeths_normal.png"
    }
  ],
  "materials": [
    {
      "doubleSided": true,
      "name": "body",
      "normalTexture": {
        "index": 2
      },
      "occlusionTexture": {
        "index": 1
      },
      "pbrMetallicRoughness": {
        "baseColorTexture": {
          "index": 0
        },
        "metallicRoughnessTexture": {
          "index": 1
        }
      }
    },
    {
      "doubleSided": true,
      "name": "eyes",
      "normalTexture": {
        "index": 5
      },
      "occlusionTexture": {
        "index": 4
      },
      "pbrMetallicRoughness": {
        "baseColorTexture": {
          "index": 3
        },
        "metallicRoughnessTexture": {
          "index": 4
        }
      }
    },
    {
      "doubleSided": true,
      "name": "teeths",
      "normalTexture": {
        "index": 8
      },
      "occlusionTexture": {
        "index": 7
      },
      "pbrMetallicRoughness": {
        "baseColorTexture": {
          "index": 6
        },
        "metallicRoughnessTexture": {
          "index": 7
        }
      }
    }
  ],
  "meshes": [
    {
      "name": "defaultMaterial",
      "primitives": [
        {
          "attributes": {
            "NORMAL": 1,
            "POSITION": 0,
            "TANGENT": 2,
            "TEXCOORD_0": 3
          },
          "indices": 4,
          "material": 2,
          "mode": 4
        }
      ]
    },
    {
      "name": "defaultMaterial",
      "primitives": [
        {
          "attributes": {
            "NORMAL": 6,
            "POSITION": 5,
            "TANGENT": 7,
            "TEXCOORD_0": 8
          },
          "indices": 9,
          "material": 1,
          "mode": 4
        }
      ]
    },
    {
      "name": "defaultMaterial",
      "primitives": [
        {
          "attributes": {
            "NORMAL": 11,
            "POSITION": 10,
            "TANGENT": 12,
            "TEXCOORD_0": 13
          },
          "indices": 14,
          "material": 0,
          "mode": 4
        }
      ]
    }
  ],
  "nodes": [
    {
      "children": [
        1
      ],
      "matrix": [
        0.9902961254119873,
        -0.13897326588630676,
        -3.0858263918866316e-17,
        0.0,
        0.0,
        2.220446049250313e-16,
        -1.0,
        0.0,
        0.13897326588630676,
        0.9902961254119873,
        2.1988991192589398e-16,
        0.0,
        1.6393384782986686e-07,
        -2.4397408537879538e-08,
        4.163936395684686e-08,
        1.0
      ],
      "name": "Sketchfab_model"
    },
    {
      "children": [
        2,
        4,
        6
      ],
      "matrix": [
        1.0,
        0.0,
        0.0,
        0.0,
        0.0,
        -4.371139006309477e-08,
        0.999999999999999,
        0.0,
        0.0,
        -0.999999999999999,
        -4.371139006309477e-08,
        0.0,
        0.0,
        0.0,
        0.0,
        1.0
      ],
      "name": "Collada visual scene group"
    },
    {
      "children": [
        3
      ],
      "name": "g"
    },
    {
      "mesh": 0,
      "name": "defaultMaterial"
    },
    {
      "children": [
        5
      ],
      "name": "g"
    },
    {
      "mesh": 1,
      "name": "defaultMaterial"
    },
    {
      "children": [
        7
      ],
      "name": "g"
    },
    {
      "mesh": 2,
      "name": "defaultMaterial"
    }
  ],
  "samplers": [
    {
      "magFilter": 9729,
      "minFilter": 9987,
      "wrapS": 10497,
      "wrapT": 10497
    }
  ],
  "scene": 0,
  "scenes": [
    {
      "name": "Sketchfab_Scene",
      "nodes": [
        0
      ]
    }
  ],
  "textures": [
    {
      "sampler": 0,
      "source": 0
    },
    {
      "sampler": 0,
      "source": 1
    },
    {
      "sampler": 0,
      "source": 2
    },
    {
      "sampler": 0,
      "source": 3
    },
    {
      "sampler": 0,
      "source": 4
    },
    {
      "sampler": 0,
      "source": 5
    },
    {
      "sampler": 0,
      "source": 6
    },
    {
      "sampler": 0,
      "source": 7
    },
    {
      "sampler": 0,
      "source": 8
    }
  ]
}
