# Blender v3.6.0 OBJ File: ''
# www.blender.org
mtllib bush.mtl
o bushgreen1
v 0.610690 1.114824 0.447817
v -0.586002 1.165921 0.374906
v -0.617749 0.002925 0.080915
v 0.578944 -0.048172 0.153825
v 0.427244 1.261536 0.288534
v -0.255045 -0.153037 -0.354476
v -0.031845 0.948459 -0.775054
v 0.204045 0.160039 0.709112
v 0.230825 -0.153037 -0.478841
v -0.058625 1.261536 0.412899
v -0.534256 0.160039 0.391006
v 0.706456 0.948459 -0.456948
v 0.246950 1.261536 0.432691
v -0.194674 0.160039 0.610658
v 0.580799 0.948459 -0.676600
v 0.139175 -0.153037 -0.498633
v -0.731520 1.103335 0.432691
v 0.166620 0.005164 -0.498633
v -0.273854 1.107121 -0.676600
v -0.291046 0.001377 0.610658
v -0.582473 1.103335 -0.408462
v 0.582473 0.005164 0.154496
v 0.614219 1.107121 -0.319510
v -0.614219 0.001377 0.065544
vt 1.000000 1.000000
vt 0.000000 1.000000
vt 0.000000 0.000000
vt 1.000000 0.000000
vt 0.000000 1.000000
vt 1.000000 0.000000
vt 1.000000 1.000000
vt 0.000000 0.000000
vt 1.000000 0.000000
vt 0.000000 1.000000
vt 0.000000 0.000000
vt 1.000000 1.000000
vt 0.000000 1.000000
vt 0.000000 0.000000
vt 1.000000 1.000000
vt 1.000000 0.000000
vt 0.000000 1.000000
vt 1.000000 0.000000
vt 1.000000 1.000000
vt 0.000000 0.000000
vt 0.000000 1.000000
vt 1.000000 0.000000
vt 1.000000 1.000000
vt 0.000000 0.000000
vn -0.0708 -0.2438 0.9672
vn 0.9060 -0.2994 -0.2994
vn 0.6626 -0.2997 0.6864
vn 0.6626 -0.2998 0.6863
vn 0.8868 -0.2982 0.3531
vn 0.8868 -0.2983 0.3530
vn 0.8488 0.3930 0.3537
vn 0.8488 0.3929 0.3537
vn -0.0711 0.3948 0.9160
vn -0.0710 0.3949 0.9160
usemtl GreenBushMAt
s 1
f 1/1/1 2/2/1 3/3/1
f 1/1/1 3/3/1 4/4/1
f 5/5/2 6/6/2 7/7/2
f 6/6/2 5/5/2 8/8/2
f 9/9/3 10/10/4 11/11/4
f 10/10/4 9/9/3 12/12/4
f 13/13/5 14/14/6 15/15/6
f 14/14/6 16/16/5 15/15/6
f 17/17/7 18/18/7 19/19/7
f 18/18/7 17/17/7 20/20/8
f 21/21/9 22/22/10 23/23/9
f 22/22/10 21/21/9 24/24/9
